<svg version="1.1" xmlns="http://www.w3.org/2000/svg" viewBox="0 0 649.4935931083057 232.92699481020225" width="649.4935931083057" height="232.92699481020225" filter="invert(93%) hue-rotate(180deg)">
  <!-- svg-source:excalidraw -->
  
  <defs>
    <style class="style-fonts">
      @font-face {
        font-family: "Virgil";
        src: url("https://excalidraw.com/Virgil.woff2");
      }
      @font-face {
        font-family: "Cascadia";
        src: url("https://excalidraw.com/Cascadia.woff2");
      }
    </style>
  </defs>
  <rect x="0" y="0" width="649.4935931083057" height="232.92699481020225" fill="#ffffff"/><g stroke-linecap="round"><g transform="translate(12.213305785467583 11.809039782732725) rotate(0 311.1064453125 0)"><path d="M-0.61 0.35 C102.99 0.22, 518.58 -0.48, 622.4 -0.67 M1.27 -0.51 C104.66 -0.51, 518.17 0.42, 621.54 0.52" stroke="#000000" stroke-width="1" fill="none"/></g></g><mask/><g stroke-linecap="round"><g transform="translate(12.341381743510851 145.9373813438369) rotate(0 311.1064453125 0)"><path d="M-0.61 0.35 C102.99 0.22, 518.58 -0.48, 622.4 -0.67 M1.27 -0.51 C104.66 -0.51, 518.17 0.42, 621.54 0.52" stroke="#000000" stroke-width="1" fill="none"/></g></g><mask/><g stroke-linecap="round"><g transform="translate(12.213305785467583 11.809039782732725) rotate(0 5.47723388671875 67.36985778808594)"><path d="M0.88 -0.81 C2.94 6.17, 12.37 28.08, 12 42.76 C11.63 57.43, -0.79 73.67, -1.32 87.24 C-1.85 100.81, 8.53 116.14, 8.82 124.18 C9.11 132.23, 1.82 133.82, 0.42 135.53 M-0.11 1.38 C1.81 7.98, 11.38 27.25, 11.03 41.23 C10.68 55.21, -1.89 71.22, -2.21 85.27 C-2.53 99.31, 8.36 116.99, 9.1 125.5 C9.84 134.01, 3.52 135.05, 2.25 136.34" stroke="#000000" stroke-width="1" fill="none"/></g></g><mask/><g stroke-linecap="round"><g transform="translate(632.2352784417176 10.713580798357725) rotate(0 1.09539794921875 67.91758728027344)"><path d="M-0.4 -0.71 C0.78 5.03, 7.91 23.02, 7.21 34.7 C6.5 46.38, -3.65 57.89, -4.63 69.37 C-5.61 80.84, 1.31 93.73, 1.35 103.56 C1.4 113.39, -4.67 123, -4.37 128.37 C-4.07 133.74, 2.1 134.72, 3.15 135.79 M1.6 1.53 C2.56 7.42, 7.11 24.59, 6.02 36.05 C4.93 47.51, -4.14 59.42, -4.95 70.29 C-5.76 81.17, 0.79 91.55, 1.16 101.31 C1.53 111.08, -2.78 123.3, -2.74 128.87 C-2.71 134.44, 0.53 133.45, 1.4 134.72" stroke="#000000" stroke-width="1" fill="none"/></g></g><mask/><g stroke-linecap="round" transform="translate(135.63257666129687 194.297469144237) rotate(0 14.314762832982638 14.31476283298263)"><path d="M16.97 0.03 C19.84 0.48, 23.44 3.29, 25.28 5.77 C27.13 8.25, 28 11.8, 28.05 14.91 C28.11 18.02, 27.48 22.24, 25.63 24.43 C23.79 26.61, 20.23 27.79, 16.96 28.03 C13.7 28.28, 8.65 27.35, 6.07 25.9 C3.48 24.44, 2.24 22.31, 1.47 19.31 C0.69 16.3, 0.34 10.84, 1.39 7.88 C2.45 4.93, 4.89 2.81, 7.8 1.58 C10.71 0.35, 16.81 0.55, 18.86 0.5 C20.9 0.46, 20.01 1.03, 20.05 1.29 M12.67 -0.2 C15.59 -0.66, 18.86 1.49, 21.42 3.25 C23.97 5.01, 26.87 7.55, 28.01 10.36 C29.15 13.16, 29.3 17.31, 28.24 20.07 C27.19 22.84, 24.52 25.58, 21.7 26.95 C18.88 28.32, 14.17 28.65, 11.31 28.28 C8.45 27.92, 6.62 27.17, 4.54 24.75 C2.46 22.33, -0.95 16.99, -1.17 13.77 C-1.38 10.56, 1.35 7.49, 3.25 5.46 C5.16 3.42, 9.08 2.44, 10.24 1.57 C11.41 0.7, 9.73 0.25, 10.23 0.24" stroke="#1864ab" stroke-width="1" fill="none"/></g><g stroke-linecap="round"><g transform="translate(141.35851369763742 208.61225191668686) rotate(0 8.588845736109278 0)"><path d="M0.79 -1.06 C3.69 -1.07, 15.54 0.45, 18.32 0.82 M-0.26 0.99 C2.51 0.58, 15.12 -0.61, 17.97 -0.88" stroke="#1864ab" stroke-width="1" fill="none"/></g></g><mask/><g stroke-linecap="round"><g transform="translate(172.47734027166797 209.8140287032042) rotate(0 31.286150356018 -0.17363602218558327)"><path d="M-0.39 -0.8 C9.94 -0.61, 51.48 0.54, 61.95 0.67 M1.61 1.4 C12.34 1.31, 54.34 -0.33, 64.34 -0.91" stroke="#000000" stroke-width="1" fill="none"/></g><g transform="translate(172.47734027166797 209.8140287032042) rotate(0 31.286150356018 -0.17363602218558327)"><path d="M35.32 9.62 C46.64 7.11, 53.8 4.4, 63.27 -0.07 M36.78 10.56 C46.68 7.12, 58.61 1.71, 65.09 -0.65" stroke="#000000" stroke-width="1" fill="none"/></g><g transform="translate(172.47734027166797 209.8140287032042) rotate(0 31.286150356018 -0.17363602218558327)"><path d="M34.37 -10.88 C45.89 -7.29, 53.33 -3.9, 63.27 -0.07 M35.83 -9.94 C46.18 -5.26, 58.5 -2.54, 65.09 -0.65" stroke="#000000" stroke-width="1" fill="none"/></g></g><mask/><g stroke-linecap="round" transform="translate(45.10907686735612 27.513393209312113) rotate(0 14.314762832982638 14.31476283298263)"><path d="M16.97 0.03 C19.84 0.48, 23.44 3.29, 25.28 5.77 C27.13 8.25, 28 11.8, 28.05 14.91 C28.11 18.02, 27.48 22.24, 25.63 24.43 C23.79 26.61, 20.23 27.79, 16.96 28.03 C13.7 28.28, 8.65 27.35, 6.07 25.9 C3.48 24.44, 2.24 22.31, 1.47 19.31 C0.69 16.3, 0.34 10.84, 1.39 7.88 C2.45 4.93, 4.89 2.81, 7.8 1.58 C10.71 0.35, 16.81 0.55, 18.86 0.5 C20.9 0.46, 20.01 1.03, 20.05 1.29 M12.67 -0.2 C15.59 -0.66, 18.86 1.49, 21.42 3.25 C23.97 5.01, 26.87 7.55, 28.01 10.36 C29.15 13.16, 29.3 17.31, 28.24 20.07 C27.19 22.84, 24.52 25.58, 21.7 26.95 C18.88 28.32, 14.17 28.65, 11.31 28.28 C8.45 27.92, 6.62 27.17, 4.54 24.75 C2.46 22.33, -0.95 16.99, -1.17 13.77 C-1.38 10.56, 1.35 7.49, 3.25 5.46 C5.16 3.42, 9.08 2.44, 10.24 1.57 C11.41 0.7, 9.73 0.25, 10.23 0.24" stroke="#1864ab" stroke-width="1" fill="none"/></g><g stroke-linecap="round"><g transform="translate(50.83501390369662 41.82817598176197) rotate(0 8.588845736109278 0)"><path d="M0.79 -1.06 C3.69 -1.07, 15.54 0.45, 18.32 0.82 M-0.26 0.99 C2.51 0.58, 15.12 -0.61, 17.97 -0.88" stroke="#1864ab" stroke-width="1" fill="none"/></g></g><mask/><g stroke-linecap="round"><g transform="translate(81.95384047772728 43.029952768279315) rotate(0 31.286150356018 -0.17363602218558327)"><path d="M-0.39 -0.8 C9.94 -0.61, 51.48 0.54, 61.95 0.67 M1.61 1.4 C12.34 1.31, 54.34 -0.33, 64.34 -0.91" stroke="#000000" stroke-width="1" fill="none"/></g><g transform="translate(81.95384047772728 43.029952768279315) rotate(0 31.286150356018 -0.17363602218558327)"><path d="M35.32 9.62 C46.64 7.11, 53.8 4.4, 63.27 -0.07 M36.78 10.56 C46.68 7.12, 58.61 1.71, 65.09 -0.65" stroke="#000000" stroke-width="1" fill="none"/></g><g transform="translate(81.95384047772728 43.029952768279315) rotate(0 31.286150356018 -0.17363602218558327)"><path d="M34.37 -10.88 C45.89 -7.29, 53.33 -3.9, 63.27 -0.07 M35.83 -9.94 C46.18 -5.26, 58.5 -2.54, 65.09 -0.65" stroke="#000000" stroke-width="1" fill="none"/></g></g><mask/><g stroke-linecap="round" transform="translate(101.72175842777312 68.6741719577939) rotate(0 14.314762832982638 14.31476283298263)"><path d="M16.97 0.03 C19.84 0.48, 23.44 3.29, 25.28 5.77 C27.13 8.25, 28 11.8, 28.05 14.91 C28.11 18.02, 27.48 22.24, 25.63 24.43 C23.79 26.61, 20.23 27.79, 16.96 28.03 C13.7 28.28, 8.65 27.35, 6.07 25.9 C3.48 24.44, 2.24 22.31, 1.47 19.31 C0.69 16.3, 0.34 10.84, 1.39 7.88 C2.45 4.93, 4.89 2.81, 7.8 1.58 C10.71 0.35, 16.81 0.55, 18.86 0.5 C20.9 0.46, 20.01 1.03, 20.05 1.29 M12.67 -0.2 C15.59 -0.66, 18.86 1.49, 21.42 3.25 C23.97 5.01, 26.87 7.55, 28.01 10.36 C29.15 13.16, 29.3 17.31, 28.24 20.07 C27.19 22.84, 24.52 25.58, 21.7 26.95 C18.88 28.32, 14.17 28.65, 11.31 28.28 C8.45 27.92, 6.62 27.17, 4.54 24.75 C2.46 22.33, -0.95 16.99, -1.17 13.77 C-1.38 10.56, 1.35 7.49, 3.25 5.46 C5.16 3.42, 9.08 2.44, 10.24 1.57 C11.41 0.7, 9.73 0.25, 10.23 0.24" stroke="#1864ab" stroke-width="1" fill="none"/></g><g stroke-linecap="round"><g transform="translate(107.44769546411351 82.98895473024376) rotate(0 8.588845736109278 0)"><path d="M0.79 -1.06 C3.69 -1.07, 15.54 0.45, 18.32 0.82 M-0.26 0.99 C2.51 0.58, 15.12 -0.61, 17.97 -0.88" stroke="#1864ab" stroke-width="1" fill="none"/></g></g><mask/><g stroke-linecap="round"><g transform="translate(138.56652203814417 84.1907315167611) rotate(0 31.286150356018 -0.17363602218558327)"><path d="M-0.39 -0.8 C9.94 -0.61, 51.48 0.54, 61.95 0.67 M1.61 1.4 C12.34 1.31, 54.34 -0.33, 64.34 -0.91" stroke="#000000" stroke-width="1" fill="none"/></g><g transform="translate(138.56652203814417 84.1907315167611) rotate(0 31.286150356018 -0.17363602218558327)"><path d="M35.32 9.62 C46.64 7.11, 53.8 4.4, 63.27 -0.07 M36.78 10.56 C46.68 7.12, 58.61 1.71, 65.09 -0.65" stroke="#000000" stroke-width="1" fill="none"/></g><g transform="translate(138.56652203814417 84.1907315167611) rotate(0 31.286150356018 -0.17363602218558327)"><path d="M34.37 -10.88 C45.89 -7.29, 53.33 -3.9, 63.27 -0.07 M35.83 -9.94 C46.18 -5.26, 58.5 -2.54, 65.09 -0.65" stroke="#000000" stroke-width="1" fill="none"/></g></g><mask/><g stroke-linecap="round" transform="translate(38.407437154874174 101.35737234800735) rotate(0 14.314762832982638 14.31476283298263)"><path d="M16.97 0.03 C19.84 0.48, 23.44 3.29, 25.28 5.77 C27.13 8.25, 28 11.8, 28.05 14.91 C28.11 18.02, 27.48 22.24, 25.63 24.43 C23.79 26.61, 20.23 27.79, 16.96 28.03 C13.7 28.28, 8.65 27.35, 6.07 25.9 C3.48 24.44, 2.24 22.31, 1.47 19.31 C0.69 16.3, 0.34 10.84, 1.39 7.88 C2.45 4.93, 4.89 2.81, 7.8 1.58 C10.71 0.35, 16.81 0.55, 18.86 0.5 C20.9 0.46, 20.01 1.03, 20.05 1.29 M12.67 -0.2 C15.59 -0.66, 18.86 1.49, 21.42 3.25 C23.97 5.01, 26.87 7.55, 28.01 10.36 C29.15 13.16, 29.3 17.31, 28.24 20.07 C27.19 22.84, 24.52 25.58, 21.7 26.95 C18.88 28.32, 14.17 28.65, 11.31 28.28 C8.45 27.92, 6.62 27.17, 4.54 24.75 C2.46 22.33, -0.95 16.99, -1.17 13.77 C-1.38 10.56, 1.35 7.49, 3.25 5.46 C5.16 3.42, 9.08 2.44, 10.24 1.57 C11.41 0.7, 9.73 0.25, 10.23 0.24" stroke="#1864ab" stroke-width="1" fill="none"/></g><g stroke-linecap="round"><g transform="translate(44.13337419121467 115.6721551204572) rotate(0 8.588845736109278 0)"><path d="M0.79 -1.06 C3.69 -1.07, 15.54 0.45, 18.32 0.82 M-0.26 0.99 C2.51 0.58, 15.12 -0.61, 17.97 -0.88" stroke="#1864ab" stroke-width="1" fill="none"/></g></g><mask/><g stroke-linecap="round"><g transform="translate(75.25220076524533 116.87393190697455) rotate(0 31.286150356018 -0.17363602218558327)"><path d="M-0.39 -0.8 C9.94 -0.61, 51.48 0.54, 61.95 0.67 M1.61 1.4 C12.34 1.31, 54.34 -0.33, 64.34 -0.91" stroke="#000000" stroke-width="1" fill="none"/></g><g transform="translate(75.25220076524533 116.87393190697455) rotate(0 31.286150356018 -0.17363602218558327)"><path d="M35.32 9.62 C46.64 7.11, 53.8 4.4, 63.27 -0.07 M36.78 10.56 C46.68 7.12, 58.61 1.71, 65.09 -0.65" stroke="#000000" stroke-width="1" fill="none"/></g><g transform="translate(75.25220076524533 116.87393190697455) rotate(0 31.286150356018 -0.17363602218558327)"><path d="M34.37 -10.88 C45.89 -7.29, 53.33 -3.9, 63.27 -0.07 M35.83 -9.94 C46.18 -5.26, 58.5 -2.54, 65.09 -0.65" stroke="#000000" stroke-width="1" fill="none"/></g></g><mask/><g stroke-linecap="round" transform="translate(165.83276305032433 39.560985565194756) rotate(0 14.314762832982638 14.31476283298263)"><path d="M16.97 0.03 C19.84 0.48, 23.44 3.29, 25.28 5.77 C27.13 8.25, 28 11.8, 28.05 14.91 C28.11 18.02, 27.48 22.24, 25.63 24.43 C23.79 26.61, 20.23 27.79, 16.96 28.03 C13.7 28.28, 8.65 27.35, 6.07 25.9 C3.48 24.44, 2.24 22.31, 1.47 19.31 C0.69 16.3, 0.34 10.84, 1.39 7.88 C2.45 4.93, 4.89 2.81, 7.8 1.58 C10.71 0.35, 16.81 0.55, 18.86 0.5 C20.9 0.46, 20.01 1.03, 20.05 1.29 M12.67 -0.2 C15.59 -0.66, 18.86 1.49, 21.42 3.25 C23.97 5.01, 26.87 7.55, 28.01 10.36 C29.15 13.16, 29.3 17.31, 28.24 20.07 C27.19 22.84, 24.52 25.58, 21.7 26.95 C18.88 28.32, 14.17 28.65, 11.31 28.28 C8.45 27.92, 6.62 27.17, 4.54 24.75 C2.46 22.33, -0.95 16.99, -1.17 13.77 C-1.38 10.56, 1.35 7.49, 3.25 5.46 C5.16 3.42, 9.08 2.44, 10.24 1.57 C11.41 0.7, 9.73 0.25, 10.23 0.24" stroke="#1864ab" stroke-width="1" fill="none"/></g><g stroke-linecap="round"><g transform="translate(171.55870008666471 53.875768337644615) rotate(0 8.588845736109278 0)"><path d="M0.79 -1.06 C3.69 -1.07, 15.54 0.45, 18.32 0.82 M-0.26 0.99 C2.51 0.58, 15.12 -0.61, 17.97 -0.88" stroke="#1864ab" stroke-width="1" fill="none"/></g></g><mask/><g stroke-linecap="round"><g transform="translate(202.67752666069538 55.077545124161986) rotate(0 31.286150356018 -0.17363602218558327)"><path d="M-0.39 -0.8 C9.94 -0.61, 51.48 0.54, 61.95 0.67 M1.61 1.4 C12.34 1.31, 54.34 -0.33, 64.34 -0.91" stroke="#000000" stroke-width="1" fill="none"/></g><g transform="translate(202.67752666069538 55.077545124161986) rotate(0 31.286150356018 -0.17363602218558327)"><path d="M35.32 9.62 C46.64 7.11, 53.8 4.4, 63.27 -0.07 M36.78 10.56 C46.68 7.12, 58.61 1.71, 65.09 -0.65" stroke="#000000" stroke-width="1" fill="none"/></g><g transform="translate(202.67752666069538 55.077545124161986) rotate(0 31.286150356018 -0.17363602218558327)"><path d="M34.37 -10.88 C45.89 -7.29, 53.33 -3.9, 63.27 -0.07 M35.83 -9.94 C46.18 -5.26, 58.5 -2.54, 65.09 -0.65" stroke="#000000" stroke-width="1" fill="none"/></g></g><mask/><g stroke-linecap="round" transform="translate(166.96640230050815 104.00216067727592) rotate(0 14.314762832982638 14.31476283298263)"><path d="M16.97 0.03 C19.84 0.48, 23.44 3.29, 25.28 5.77 C27.13 8.25, 28 11.8, 28.05 14.91 C28.11 18.02, 27.48 22.24, 25.63 24.43 C23.79 26.61, 20.23 27.79, 16.96 28.03 C13.7 28.28, 8.65 27.35, 6.07 25.9 C3.48 24.44, 2.24 22.31, 1.47 19.31 C0.69 16.3, 0.34 10.84, 1.39 7.88 C2.45 4.93, 4.89 2.81, 7.8 1.58 C10.71 0.35, 16.81 0.55, 18.86 0.5 C20.9 0.46, 20.01 1.03, 20.05 1.29 M12.67 -0.2 C15.59 -0.66, 18.86 1.49, 21.42 3.25 C23.97 5.01, 26.87 7.55, 28.01 10.36 C29.15 13.16, 29.3 17.31, 28.24 20.07 C27.19 22.84, 24.52 25.58, 21.7 26.95 C18.88 28.32, 14.17 28.65, 11.31 28.28 C8.45 27.92, 6.62 27.17, 4.54 24.75 C2.46 22.33, -0.95 16.99, -1.17 13.77 C-1.38 10.56, 1.35 7.49, 3.25 5.46 C5.16 3.42, 9.08 2.44, 10.24 1.57 C11.41 0.7, 9.73 0.25, 10.23 0.24" stroke="#1864ab" stroke-width="1" fill="none"/></g><g stroke-linecap="round"><g transform="translate(172.69233933684865 118.31694344972578) rotate(0 8.588845736109278 0)"><path d="M0.79 -1.06 C3.69 -1.07, 15.54 0.45, 18.32 0.82 M-0.26 0.99 C2.51 0.58, 15.12 -0.61, 17.97 -0.88" stroke="#1864ab" stroke-width="1" fill="none"/></g></g><mask/><g stroke-linecap="round"><g transform="translate(203.8111659108793 119.51872023624313) rotate(0 31.286150356018 -0.17363602218558327)"><path d="M-0.39 -0.8 C9.94 -0.61, 51.48 0.54, 61.95 0.67 M1.61 1.4 C12.34 1.31, 54.34 -0.33, 64.34 -0.91" stroke="#000000" stroke-width="1" fill="none"/></g><g transform="translate(203.8111659108793 119.51872023624313) rotate(0 31.286150356018 -0.17363602218558327)"><path d="M35.32 9.62 C46.64 7.11, 53.8 4.4, 63.27 -0.07 M36.78 10.56 C46.68 7.12, 58.61 1.71, 65.09 -0.65" stroke="#000000" stroke-width="1" fill="none"/></g><g transform="translate(203.8111659108793 119.51872023624313) rotate(0 31.286150356018 -0.17363602218558327)"><path d="M34.37 -10.88 C45.89 -7.29, 53.33 -3.9, 63.27 -0.07 M35.83 -9.94 C46.18 -5.26, 58.5 -2.54, 65.09 -0.65" stroke="#000000" stroke-width="1" fill="none"/></g></g><mask/><g stroke-linecap="round" transform="translate(250.1049359650728 73.02847166159506) rotate(0 14.314762832982638 14.31476283298263)"><path d="M16.97 0.03 C19.84 0.48, 23.44 3.29, 25.28 5.77 C27.13 8.25, 28 11.8, 28.05 14.91 C28.11 18.02, 27.48 22.24, 25.63 24.43 C23.79 26.61, 20.23 27.79, 16.96 28.03 C13.7 28.28, 8.65 27.35, 6.07 25.9 C3.48 24.44, 2.24 22.31, 1.47 19.31 C0.69 16.3, 0.34 10.84, 1.39 7.88 C2.45 4.93, 4.89 2.81, 7.8 1.58 C10.71 0.35, 16.81 0.55, 18.86 0.5 C20.9 0.46, 20.01 1.03, 20.05 1.29 M12.67 -0.2 C15.59 -0.66, 18.86 1.49, 21.42 3.25 C23.97 5.01, 26.87 7.55, 28.01 10.36 C29.15 13.16, 29.3 17.31, 28.24 20.07 C27.19 22.84, 24.52 25.58, 21.7 26.95 C18.88 28.32, 14.17 28.65, 11.31 28.28 C8.45 27.92, 6.62 27.17, 4.54 24.75 C2.46 22.33, -0.95 16.99, -1.17 13.77 C-1.38 10.56, 1.35 7.49, 3.25 5.46 C5.16 3.42, 9.08 2.44, 10.24 1.57 C11.41 0.7, 9.73 0.25, 10.23 0.24" stroke="#1864ab" stroke-width="1" fill="none"/></g><g stroke-linecap="round"><g transform="translate(255.83087300141318 87.34325443404492) rotate(0 8.588845736109278 0)"><path d="M0.79 -1.06 C3.69 -1.07, 15.54 0.45, 18.32 0.82 M-0.26 0.99 C2.51 0.58, 15.12 -0.61, 17.97 -0.88" stroke="#1864ab" stroke-width="1" fill="none"/></g></g><mask/><g stroke-linecap="round"><g transform="translate(286.9496995754439 88.54503122056227) rotate(0 31.286150356018 -0.17363602218558327)"><path d="M-0.39 -0.8 C9.94 -0.61, 51.48 0.54, 61.95 0.67 M1.61 1.4 C12.34 1.31, 54.34 -0.33, 64.34 -0.91" stroke="#000000" stroke-width="1" fill="none"/></g><g transform="translate(286.9496995754439 88.54503122056227) rotate(0 31.286150356018 -0.17363602218558327)"><path d="M35.32 9.62 C46.64 7.11, 53.8 4.4, 63.27 -0.07 M36.78 10.56 C46.68 7.12, 58.61 1.71, 65.09 -0.65" stroke="#000000" stroke-width="1" fill="none"/></g><g transform="translate(286.9496995754439 88.54503122056227) rotate(0 31.286150356018 -0.17363602218558327)"><path d="M34.37 -10.88 C45.89 -7.29, 53.33 -3.9, 63.27 -0.07 M35.83 -9.94 C46.18 -5.26, 58.5 -2.54, 65.09 -0.65" stroke="#000000" stroke-width="1" fill="none"/></g></g><mask/><g stroke-linecap="round" transform="translate(285.2154427496958 25.383566843018315) rotate(0 14.31476283298263 14.31476283298263)"><path d="M16.97 0.03 C19.84 0.48, 23.44 3.29, 25.28 5.77 C27.13 8.25, 28 11.8, 28.05 14.91 C28.11 18.02, 27.48 22.24, 25.63 24.43 C23.79 26.61, 20.23 27.79, 16.96 28.03 C13.7 28.28, 8.65 27.35, 6.07 25.9 C3.48 24.44, 2.24 22.31, 1.47 19.31 C0.69 16.3, 0.34 10.84, 1.39 7.88 C2.45 4.93, 4.89 2.81, 7.8 1.58 C10.71 0.35, 16.81 0.55, 18.86 0.5 C20.9 0.46, 20.01 1.03, 20.05 1.29 M12.67 -0.2 C15.59 -0.66, 18.86 1.49, 21.42 3.25 C23.97 5.01, 26.87 7.55, 28.01 10.36 C29.15 13.16, 29.3 17.31, 28.24 20.07 C27.19 22.84, 24.52 25.58, 21.7 26.95 C18.88 28.32, 14.17 28.65, 11.31 28.28 C8.45 27.92, 6.62 27.17, 4.54 24.75 C2.46 22.33, -0.95 16.99, -1.17 13.77 C-1.38 10.56, 1.35 7.49, 3.25 5.46 C5.16 3.42, 9.08 2.44, 10.24 1.57 C11.41 0.7, 9.73 0.25, 10.23 0.24" stroke="#1864ab" stroke-width="1" fill="none"/></g><g stroke-linecap="round"><g transform="translate(290.9413797860364 39.698349615468175) rotate(0 8.588845736109278 0)"><path d="M0.79 -1.06 C3.69 -1.07, 15.54 0.45, 18.32 0.82 M-0.26 0.99 C2.51 0.58, 15.12 -0.61, 17.97 -0.88" stroke="#1864ab" stroke-width="1" fill="none"/></g></g><mask/><g stroke-linecap="round"><g transform="translate(322.060206360067 40.90012640198549) rotate(0 31.286150356018 -0.17363602218558327)"><path d="M-0.39 -0.8 C9.94 -0.61, 51.48 0.54, 61.95 0.67 M1.61 1.4 C12.34 1.31, 54.34 -0.33, 64.34 -0.91" stroke="#000000" stroke-width="1" fill="none"/></g><g transform="translate(322.060206360067 40.90012640198549) rotate(0 31.286150356018 -0.17363602218558327)"><path d="M35.32 9.62 C46.64 7.11, 53.8 4.4, 63.27 -0.07 M36.78 10.56 C46.68 7.12, 58.61 1.71, 65.09 -0.65" stroke="#000000" stroke-width="1" fill="none"/></g><g transform="translate(322.060206360067 40.90012640198549) rotate(0 31.286150356018 -0.17363602218558327)"><path d="M34.37 -10.88 C45.89 -7.29, 53.33 -3.9, 63.27 -0.07 M35.83 -9.94 C46.18 -5.26, 58.5 -2.54, 65.09 -0.65" stroke="#000000" stroke-width="1" fill="none"/></g></g><mask/><g stroke-linecap="round" transform="translate(298.27831015357145 109.00332566071802) rotate(0 14.31476283298263 14.314762832982632)"><path d="M16.97 0.03 C19.84 0.48, 23.44 3.29, 25.28 5.77 C27.13 8.25, 28 11.8, 28.05 14.91 C28.11 18.02, 27.48 22.24, 25.63 24.43 C23.79 26.61, 20.23 27.79, 16.96 28.03 C13.7 28.28, 8.65 27.35, 6.07 25.9 C3.48 24.44, 2.24 22.31, 1.47 19.31 C0.69 16.3, 0.34 10.84, 1.39 7.88 C2.45 4.93, 4.89 2.81, 7.8 1.58 C10.71 0.35, 16.81 0.55, 18.86 0.5 C20.9 0.46, 20.01 1.03, 20.05 1.29 M12.67 -0.2 C15.59 -0.66, 18.86 1.49, 21.42 3.25 C23.97 5.01, 26.87 7.55, 28.01 10.36 C29.15 13.16, 29.3 17.31, 28.24 20.07 C27.19 22.84, 24.52 25.58, 21.7 26.95 C18.88 28.32, 14.17 28.65, 11.31 28.28 C8.45 27.92, 6.62 27.17, 4.54 24.75 C2.46 22.33, -0.95 16.99, -1.17 13.77 C-1.38 10.56, 1.35 7.49, 3.25 5.46 C5.16 3.42, 9.08 2.44, 10.24 1.57 C11.41 0.7, 9.73 0.25, 10.23 0.24" stroke="#1864ab" stroke-width="1" fill="none"/></g><g stroke-linecap="round"><g transform="translate(304.0042471899119 123.31810843316788) rotate(0 8.588845736109278 0)"><path d="M0.79 -1.06 C3.69 -1.07, 15.54 0.45, 18.32 0.82 M-0.26 0.99 C2.51 0.58, 15.12 -0.61, 17.97 -0.88" stroke="#1864ab" stroke-width="1" fill="none"/></g></g><mask/><g stroke-linecap="round"><g transform="translate(335.12307376394256 124.51988521968522) rotate(0 31.286150356018 -0.17363602218558327)"><path d="M-0.39 -0.8 C9.94 -0.61, 51.48 0.54, 61.95 0.67 M1.61 1.4 C12.34 1.31, 54.34 -0.33, 64.34 -0.91" stroke="#000000" stroke-width="1" fill="none"/></g><g transform="translate(335.12307376394256 124.51988521968522) rotate(0 31.286150356018 -0.17363602218558327)"><path d="M35.32 9.62 C46.64 7.11, 53.8 4.4, 63.27 -0.07 M36.78 10.56 C46.68 7.12, 58.61 1.71, 65.09 -0.65" stroke="#000000" stroke-width="1" fill="none"/></g><g transform="translate(335.12307376394256 124.51988521968522) rotate(0 31.286150356018 -0.17363602218558327)"><path d="M34.37 -10.88 C45.89 -7.29, 53.33 -3.9, 63.27 -0.07 M35.83 -9.94 C46.18 -5.26, 58.5 -2.54, 65.09 -0.65" stroke="#000000" stroke-width="1" fill="none"/></g></g><mask/><g stroke-linecap="round" transform="translate(380.580716303596 63.207603877710966) rotate(0 14.314762832982632 14.31476283298263)"><path d="M16.97 0.03 C19.84 0.48, 23.44 3.29, 25.28 5.77 C27.13 8.25, 28 11.8, 28.05 14.91 C28.11 18.02, 27.48 22.24, 25.63 24.43 C23.79 26.61, 20.23 27.79, 16.96 28.03 C13.7 28.28, 8.65 27.35, 6.07 25.9 C3.48 24.44, 2.24 22.31, 1.47 19.31 C0.69 16.3, 0.34 10.84, 1.39 7.88 C2.45 4.93, 4.89 2.81, 7.8 1.58 C10.71 0.35, 16.81 0.55, 18.86 0.5 C20.9 0.46, 20.01 1.03, 20.05 1.29 M12.67 -0.2 C15.59 -0.66, 18.86 1.49, 21.42 3.25 C23.97 5.01, 26.87 7.55, 28.01 10.36 C29.15 13.16, 29.3 17.31, 28.24 20.07 C27.19 22.84, 24.52 25.58, 21.7 26.95 C18.88 28.32, 14.17 28.65, 11.31 28.28 C8.45 27.92, 6.62 27.17, 4.54 24.75 C2.46 22.33, -0.95 16.99, -1.17 13.77 C-1.38 10.56, 1.35 7.49, 3.25 5.46 C5.16 3.42, 9.08 2.44, 10.24 1.57 C11.41 0.7, 9.73 0.25, 10.23 0.24" stroke="#1864ab" stroke-width="1" fill="none"/></g><g stroke-linecap="round"><g transform="translate(386.3066533399365 77.52238665016083) rotate(0 8.588845736109278 0)"><path d="M0.79 -1.06 C3.69 -1.07, 15.54 0.45, 18.32 0.82 M-0.26 0.99 C2.51 0.58, 15.12 -0.61, 17.97 -0.88" stroke="#1864ab" stroke-width="1" fill="none"/></g></g><mask/><g stroke-linecap="round"><g transform="translate(417.42547991396714 78.72416343667817) rotate(0 31.286150356018 -0.17363602218558327)"><path d="M-0.39 -0.8 C9.94 -0.61, 51.48 0.54, 61.95 0.67 M1.61 1.4 C12.34 1.31, 54.34 -0.33, 64.34 -0.91" stroke="#000000" stroke-width="1" fill="none"/></g><g transform="translate(417.42547991396714 78.72416343667817) rotate(0 31.286150356018 -0.17363602218558327)"><path d="M35.32 9.62 C46.64 7.11, 53.8 4.4, 63.27 -0.07 M36.78 10.56 C46.68 7.12, 58.61 1.71, 65.09 -0.65" stroke="#000000" stroke-width="1" fill="none"/></g><g transform="translate(417.42547991396714 78.72416343667817) rotate(0 31.286150356018 -0.17363602218558327)"><path d="M34.37 -10.88 C45.89 -7.29, 53.33 -3.9, 63.27 -0.07 M35.83 -9.94 C46.18 -5.26, 58.5 -2.54, 65.09 -0.65" stroke="#000000" stroke-width="1" fill="none"/></g></g><mask/><g stroke-linecap="round" transform="translate(419.66798125559126 31.199456759570154) rotate(0 14.314762832982634 14.31476283298263)"><path d="M16.97 0.03 C19.84 0.48, 23.44 3.29, 25.28 5.77 C27.13 8.25, 28 11.8, 28.05 14.91 C28.11 18.02, 27.48 22.24, 25.63 24.43 C23.79 26.61, 20.23 27.79, 16.96 28.03 C13.7 28.28, 8.65 27.35, 6.07 25.9 C3.48 24.44, 2.24 22.31, 1.47 19.31 C0.69 16.3, 0.34 10.84, 1.39 7.88 C2.45 4.93, 4.89 2.81, 7.8 1.58 C10.71 0.35, 16.81 0.55, 18.86 0.5 C20.9 0.46, 20.01 1.03, 20.05 1.29 M12.67 -0.2 C15.59 -0.66, 18.86 1.49, 21.42 3.25 C23.97 5.01, 26.87 7.55, 28.01 10.36 C29.15 13.16, 29.3 17.31, 28.24 20.07 C27.19 22.84, 24.52 25.58, 21.7 26.95 C18.88 28.32, 14.17 28.65, 11.31 28.28 C8.45 27.92, 6.62 27.17, 4.54 24.75 C2.46 22.33, -0.95 16.99, -1.17 13.77 C-1.38 10.56, 1.35 7.49, 3.25 5.46 C5.16 3.42, 9.08 2.44, 10.24 1.57 C11.41 0.7, 9.73 0.25, 10.23 0.24" stroke="#1864ab" stroke-width="1" fill="none"/></g><g stroke-linecap="round"><g transform="translate(425.39391829193175 45.51423953202007) rotate(0 8.588845736109278 0)"><path d="M0.79 -1.06 C3.69 -1.07, 15.54 0.45, 18.32 0.82 M-0.26 0.99 C2.51 0.58, 15.12 -0.61, 17.97 -0.88" stroke="#1864ab" stroke-width="1" fill="none"/></g></g><mask/><g stroke-linecap="round"><g transform="translate(456.5127448659624 46.716016318537385) rotate(0 31.286150356018 -0.17363602218558327)"><path d="M-0.39 -0.8 C9.94 -0.61, 51.48 0.54, 61.95 0.67 M1.61 1.4 C12.34 1.31, 54.34 -0.33, 64.34 -0.91" stroke="#000000" stroke-width="1" fill="none"/></g><g transform="translate(456.5127448659624 46.716016318537385) rotate(0 31.286150356018 -0.17363602218558327)"><path d="M35.32 9.62 C46.64 7.11, 53.8 4.4, 63.27 -0.07 M36.78 10.56 C46.68 7.12, 58.61 1.71, 65.09 -0.65" stroke="#000000" stroke-width="1" fill="none"/></g><g transform="translate(456.5127448659624 46.716016318537385) rotate(0 31.286150356018 -0.17363602218558327)"><path d="M34.37 -10.88 C45.89 -7.29, 53.33 -3.9, 63.27 -0.07 M35.83 -9.94 C46.18 -5.26, 58.5 -2.54, 65.09 -0.65" stroke="#000000" stroke-width="1" fill="none"/></g></g><mask/><g stroke-linecap="round" transform="translate(429.52946638290075 98.77117953056546) rotate(0 14.31476283298263 14.31476283298263)"><path d="M16.97 0.03 C19.84 0.48, 23.44 3.29, 25.28 5.77 C27.13 8.25, 28 11.8, 28.05 14.91 C28.11 18.02, 27.48 22.24, 25.63 24.43 C23.79 26.61, 20.23 27.79, 16.96 28.03 C13.7 28.28, 8.65 27.35, 6.07 25.9 C3.48 24.44, 2.24 22.31, 1.47 19.31 C0.69 16.3, 0.34 10.84, 1.39 7.88 C2.45 4.93, 4.89 2.81, 7.8 1.58 C10.71 0.35, 16.81 0.55, 18.86 0.5 C20.9 0.46, 20.01 1.03, 20.05 1.29 M12.67 -0.2 C15.59 -0.66, 18.86 1.49, 21.42 3.25 C23.97 5.01, 26.87 7.55, 28.01 10.36 C29.15 13.16, 29.3 17.31, 28.24 20.07 C27.19 22.84, 24.52 25.58, 21.7 26.95 C18.88 28.32, 14.17 28.65, 11.31 28.28 C8.45 27.92, 6.62 27.17, 4.54 24.75 C2.46 22.33, -0.95 16.99, -1.17 13.77 C-1.38 10.56, 1.35 7.49, 3.25 5.46 C5.16 3.42, 9.08 2.44, 10.24 1.57 C11.41 0.7, 9.73 0.25, 10.23 0.24" stroke="#1864ab" stroke-width="1" fill="none"/></g><g stroke-linecap="round"><g transform="translate(435.25540341924125 113.08596230301532) rotate(0 8.588845736109278 0)"><path d="M0.79 -1.06 C3.69 -1.07, 15.54 0.45, 18.32 0.82 M-0.26 0.99 C2.51 0.58, 15.12 -0.61, 17.97 -0.88" stroke="#1864ab" stroke-width="1" fill="none"/></g></g><mask/><g stroke-linecap="round"><g transform="translate(466.3742299932719 114.28773908953269) rotate(0 31.286150356018 -0.17363602218558327)"><path d="M-0.39 -0.8 C9.94 -0.61, 51.48 0.54, 61.95 0.67 M1.61 1.4 C12.34 1.31, 54.34 -0.33, 64.34 -0.91" stroke="#000000" stroke-width="1" fill="none"/></g><g transform="translate(466.3742299932719 114.28773908953269) rotate(0 31.286150356018 -0.17363602218558327)"><path d="M35.32 9.62 C46.64 7.11, 53.8 4.4, 63.27 -0.07 M36.78 10.56 C46.68 7.12, 58.61 1.71, 65.09 -0.65" stroke="#000000" stroke-width="1" fill="none"/></g><g transform="translate(466.3742299932719 114.28773908953269) rotate(0 31.286150356018 -0.17363602218558327)"><path d="M34.37 -10.88 C45.89 -7.29, 53.33 -3.9, 63.27 -0.07 M35.83 -9.94 C46.18 -5.26, 58.5 -2.54, 65.09 -0.65" stroke="#000000" stroke-width="1" fill="none"/></g></g><mask/><g stroke-linecap="round" transform="translate(506.1973813843173 65.33521071704163) rotate(0 14.31476283298263 14.31476283298263)"><path d="M16.97 0.03 C19.84 0.48, 23.44 3.29, 25.28 5.77 C27.13 8.25, 28 11.8, 28.05 14.91 C28.11 18.02, 27.48 22.24, 25.63 24.43 C23.79 26.61, 20.23 27.79, 16.96 28.03 C13.7 28.28, 8.65 27.35, 6.07 25.9 C3.48 24.44, 2.24 22.31, 1.47 19.31 C0.69 16.3, 0.34 10.84, 1.39 7.88 C2.45 4.93, 4.89 2.81, 7.8 1.58 C10.71 0.35, 16.81 0.55, 18.86 0.5 C20.9 0.46, 20.01 1.03, 20.05 1.29 M12.67 -0.2 C15.59 -0.66, 18.86 1.49, 21.42 3.25 C23.97 5.01, 26.87 7.55, 28.01 10.36 C29.15 13.16, 29.3 17.31, 28.24 20.07 C27.19 22.84, 24.52 25.58, 21.7 26.95 C18.88 28.32, 14.17 28.65, 11.31 28.28 C8.45 27.92, 6.62 27.17, 4.54 24.75 C2.46 22.33, -0.95 16.99, -1.17 13.77 C-1.38 10.56, 1.35 7.49, 3.25 5.46 C5.16 3.42, 9.08 2.44, 10.24 1.57 C11.41 0.7, 9.73 0.25, 10.23 0.24" stroke="#1864ab" stroke-width="1" fill="none"/></g><g stroke-linecap="round"><g transform="translate(511.9233184206578 79.6499934894915) rotate(0 8.588845736109278 0)"><path d="M0.79 -1.06 C3.69 -1.07, 15.54 0.45, 18.32 0.82 M-0.26 0.99 C2.51 0.58, 15.12 -0.61, 17.97 -0.88" stroke="#1864ab" stroke-width="1" fill="none"/></g></g><mask/><g stroke-linecap="round"><g transform="translate(543.0421449946884 80.85177027600884) rotate(0 31.286150356018 -0.17363602218558327)"><path d="M-0.39 -0.8 C9.94 -0.61, 51.48 0.54, 61.95 0.67 M1.61 1.4 C12.34 1.31, 54.34 -0.33, 64.34 -0.91" stroke="#000000" stroke-width="1" fill="none"/></g><g transform="translate(543.0421449946884 80.85177027600884) rotate(0 31.286150356018 -0.17363602218558327)"><path d="M35.32 9.62 C46.64 7.11, 53.8 4.4, 63.27 -0.07 M36.78 10.56 C46.68 7.12, 58.61 1.71, 65.09 -0.65" stroke="#000000" stroke-width="1" fill="none"/></g><g transform="translate(543.0421449946884 80.85177027600884) rotate(0 31.286150356018 -0.17363602218558327)"><path d="M34.37 -10.88 C45.89 -7.29, 53.33 -3.9, 63.27 -0.07 M35.83 -9.94 C46.18 -5.26, 58.5 -2.54, 65.09 -0.65" stroke="#000000" stroke-width="1" fill="none"/></g></g><mask/><g stroke-linecap="round" transform="translate(530.9134629102549 19.83926775793367) rotate(0 14.314762832982638 14.31476283298263)"><path d="M16.97 0.03 C19.84 0.48, 23.44 3.29, 25.28 5.77 C27.13 8.25, 28 11.8, 28.05 14.91 C28.11 18.02, 27.48 22.24, 25.63 24.43 C23.79 26.61, 20.23 27.79, 16.96 28.03 C13.7 28.28, 8.65 27.35, 6.07 25.9 C3.48 24.44, 2.24 22.31, 1.47 19.31 C0.69 16.3, 0.34 10.84, 1.39 7.88 C2.45 4.93, 4.89 2.81, 7.8 1.58 C10.71 0.35, 16.81 0.55, 18.86 0.5 C20.9 0.46, 20.01 1.03, 20.05 1.29 M12.67 -0.2 C15.59 -0.66, 18.86 1.49, 21.42 3.25 C23.97 5.01, 26.87 7.55, 28.01 10.36 C29.15 13.16, 29.3 17.31, 28.24 20.07 C27.19 22.84, 24.52 25.58, 21.7 26.95 C18.88 28.32, 14.17 28.65, 11.31 28.28 C8.45 27.92, 6.62 27.17, 4.54 24.75 C2.46 22.33, -0.95 16.99, -1.17 13.77 C-1.38 10.56, 1.35 7.49, 3.25 5.46 C5.16 3.42, 9.08 2.44, 10.24 1.57 C11.41 0.7, 9.73 0.25, 10.23 0.24" stroke="#1864ab" stroke-width="1" fill="none"/></g><g stroke-linecap="round"><g transform="translate(536.6393999465954 34.15405053038356) rotate(0 8.588845736109278 0)"><path d="M0.79 -1.06 C3.69 -1.07, 15.54 0.45, 18.32 0.82 M-0.26 0.99 C2.51 0.58, 15.12 -0.61, 17.97 -0.88" stroke="#1864ab" stroke-width="1" fill="none"/></g></g><mask/><g stroke-linecap="round"><g transform="translate(567.7582265206261 35.3558273169009) rotate(0 31.286150356018 -0.17363602218557617)"><path d="M-0.39 -0.8 C9.94 -0.61, 51.48 0.54, 61.95 0.67 M1.61 1.4 C12.34 1.31, 54.34 -0.33, 64.34 -0.91" stroke="#000000" stroke-width="1" fill="none"/></g><g transform="translate(567.7582265206261 35.3558273169009) rotate(0 31.286150356018 -0.17363602218557617)"><path d="M35.32 9.62 C46.64 7.11, 53.8 4.4, 63.27 -0.07 M36.78 10.56 C46.68 7.12, 58.61 1.71, 65.09 -0.65" stroke="#000000" stroke-width="1" fill="none"/></g><g transform="translate(567.7582265206261 35.3558273169009) rotate(0 31.286150356018 -0.17363602218557617)"><path d="M34.37 -10.88 C45.89 -7.29, 53.33 -3.9, 63.27 -0.07 M35.83 -9.94 C46.18 -5.26, 58.5 -2.54, 65.09 -0.65" stroke="#000000" stroke-width="1" fill="none"/></g></g><mask/><g stroke-linecap="round" transform="translate(527.0504713535071 89.97576491117661) rotate(0 14.314762832982638 14.31476283298263)"><path d="M16.97 0.03 C19.84 0.48, 23.44 3.29, 25.28 5.77 C27.13 8.25, 28 11.8, 28.05 14.91 C28.11 18.02, 27.48 22.24, 25.63 24.43 C23.79 26.61, 20.23 27.79, 16.96 28.03 C13.7 28.28, 8.65 27.35, 6.07 25.9 C3.48 24.44, 2.24 22.31, 1.47 19.31 C0.69 16.3, 0.34 10.84, 1.39 7.88 C2.45 4.93, 4.89 2.81, 7.8 1.58 C10.71 0.35, 16.81 0.55, 18.86 0.5 C20.9 0.46, 20.01 1.03, 20.05 1.29 M12.67 -0.2 C15.59 -0.66, 18.86 1.49, 21.42 3.25 C23.97 5.01, 26.87 7.55, 28.01 10.36 C29.15 13.16, 29.3 17.31, 28.24 20.07 C27.19 22.84, 24.52 25.58, 21.7 26.95 C18.88 28.32, 14.17 28.65, 11.31 28.28 C8.45 27.92, 6.62 27.17, 4.54 24.75 C2.46 22.33, -0.95 16.99, -1.17 13.77 C-1.38 10.56, 1.35 7.49, 3.25 5.46 C5.16 3.42, 9.08 2.44, 10.24 1.57 C11.41 0.7, 9.73 0.25, 10.23 0.24" stroke="#1864ab" stroke-width="1" fill="none"/></g><g stroke-linecap="round"><g transform="translate(532.7764083898476 104.29054768362647) rotate(0 8.588845736109278 0)"><path d="M0.79 -1.06 C3.69 -1.07, 15.54 0.45, 18.32 0.82 M-0.26 0.99 C2.51 0.58, 15.12 -0.61, 17.97 -0.88" stroke="#1864ab" stroke-width="1" fill="none"/></g></g><mask/><g stroke-linecap="round"><g transform="translate(563.8952349638782 105.49232447014381) rotate(0 31.286150356018 -0.17363602218558327)"><path d="M-0.39 -0.8 C9.94 -0.61, 51.48 0.54, 61.95 0.67 M1.61 1.4 C12.34 1.31, 54.34 -0.33, 64.34 -0.91" stroke="#000000" stroke-width="1" fill="none"/></g><g transform="translate(563.8952349638782 105.49232447014381) rotate(0 31.286150356018 -0.17363602218558327)"><path d="M35.32 9.62 C46.64 7.11, 53.8 4.4, 63.27 -0.07 M36.78 10.56 C46.68 7.12, 58.61 1.71, 65.09 -0.65" stroke="#000000" stroke-width="1" fill="none"/></g><g transform="translate(563.8952349638782 105.49232447014381) rotate(0 31.286150356018 -0.17363602218558327)"><path d="M34.37 -10.88 C45.89 -7.29, 53.33 -3.9, 63.27 -0.07 M35.83 -9.94 C46.18 -5.26, 58.5 -2.54, 65.09 -0.65" stroke="#000000" stroke-width="1" fill="none"/></g></g><mask/></svg>