<svg version="1.1" xmlns="http://www.w3.org/2000/svg" viewBox="0 0 843.059188701741 349.6639449927757" width="843.059188701741" height="349.6639449927757" filter="invert(93%) hue-rotate(180deg)">
  <!-- svg-source:excalidraw -->
  
  <defs>
    <style class="style-fonts">
      @font-face {
        font-family: "Virgil";
        src: url("https://excalidraw.com/Virgil.woff2");
      }
      @font-face {
        font-family: "Cascadia";
        src: url("https://excalidraw.com/Cascadia.woff2");
      }
    </style>
  </defs>
  <rect x="0" y="0" width="843.059188701741" height="349.6639449927757" fill="#ffffff"/><g stroke-linecap="round" transform="translate(247.60003662109375 61.263920578713225) rotate(0 19.79998779296875 17.400009155273438)"><path d="M20.39 0.46 C24.26 0.14, 29.03 2.11, 32.06 4.37 C35.09 6.64, 37.63 10.53, 38.58 14.06 C39.53 17.58, 39.8 22.11, 37.77 25.51 C35.74 28.91, 30.65 32.92, 26.4 34.45 C22.16 35.99, 16.42 35.99, 12.32 34.72 C8.22 33.45, 3.97 30.31, 1.81 26.81 C-0.35 23.31, -1.51 17.5, -0.67 13.71 C0.18 9.92, 3.21 6.43, 6.87 4.05 C10.54 1.68, 18.62 -0.09, 21.34 -0.54 C24.06 -1, 23.18 0.98, 23.19 1.31 M14.01 -0.84 C17.93 -1.85, 25.79 -1.19, 29.94 0.93 C34.1 3.05, 37.42 8.37, 38.92 11.9 C40.42 15.43, 40.52 18.53, 38.95 22.11 C37.38 25.68, 32.82 31.07, 29.5 33.34 C26.19 35.62, 23.13 36.24, 19.03 35.75 C14.94 35.27, 8.28 33.22, 4.92 30.42 C1.56 27.61, -0.81 22.71, -1.13 18.93 C-1.44 15.14, 0.17 10.76, 3.04 7.72 C5.91 4.68, 14.18 1.78, 16.09 0.66 C17.99 -0.45, 14.54 0.84, 14.47 1.03" stroke="#000000" stroke-width="1" fill="none"/></g><g stroke-linecap="round" transform="translate(226.00006103515625 42.063969406838225) rotate(0 39.5999755859375 42)"><path d="M20.95 3.97 C26.83 0.29, 35.95 -0.08, 43.02 0.64 C50.09 1.36, 57.57 3.69, 63.38 8.3 C69.19 12.9, 75.26 21.1, 77.87 28.26 C80.49 35.42, 81.01 44.1, 79.07 51.26 C77.14 58.42, 71.57 66.02, 66.27 71.21 C60.96 76.4, 53.98 80.7, 47.23 82.42 C40.48 84.14, 32.41 84.02, 25.78 81.52 C19.15 79.03, 11.76 73.53, 7.44 67.45 C3.11 61.36, 0.31 52.87, -0.16 45.02 C-0.62 37.18, 0.44 27.43, 4.65 20.39 C8.85 13.34, 20.94 5.77, 25.09 2.76 C29.25 -0.25, 29.44 1.61, 29.59 2.32 M38.4 -0.31 C45.33 -1.05, 53.91 3.81, 59.93 7.59 C65.94 11.37, 71.09 15.75, 74.48 22.36 C77.87 28.97, 81.15 39.34, 80.26 47.24 C79.38 55.15, 73.81 63.8, 69.17 69.8 C64.54 75.81, 59.06 81.21, 52.46 83.3 C45.87 85.38, 36.39 84.34, 29.6 82.32 C22.81 80.3, 16.46 76.83, 11.7 71.15 C6.93 65.48, 2.57 56.12, 0.99 48.28 C-0.58 40.45, -0.67 31.12, 2.24 24.16 C5.14 17.2, 12.57 10.72, 18.43 6.53 C24.3 2.35, 34.07 0.2, 37.41 -0.95 C40.75 -2.1, 38.04 -1.31, 38.46 -0.36" stroke="#000000" stroke-width="1" fill="none"/></g><g stroke-linecap="round"><g transform="translate(24.4000244140625 68.4639633033226) rotate(0 0 12.599990844726562)"><path d="M-0.41 -0.75 C-0.45 3.49, -0.77 21.09, -0.85 25.23 M1.57 1.48 C1.96 5.94, 1.43 22.89, 1.42 26.79" stroke="#000000" stroke-width="1" fill="none"/></g></g><mask/><g stroke-linecap="round"><g transform="translate(25.59991455078125 98.4639633033226) rotate(0 52.800018310546875 9)"><path d="M-0.95 0.02 C16.52 3.13, 88.05 15.35, 105.69 18.26 M0.75 -1.01 C17.99 1.74, 87.01 13.02, 104.78 16.27" stroke="#000000" stroke-width="1" fill="none"/></g></g><mask/><g stroke-linecap="round"><g transform="translate(28 68.4639633033226) rotate(0 52.800018310546875 -15.599990844726562)"><path d="M-1.13 0.61 C16.66 -4.92, 87.8 -26.87, 105.75 -32.08 M0.48 -0.11 C18.21 -5.01, 87.24 -25.57, 104.89 -31.01" stroke="#000000" stroke-width="1" fill="none"/></g></g><mask/><g stroke-linecap="round"><g transform="translate(133.5999755859375 38.4639633033226) rotate(0 -0.5999755859375 39)"><path d="M0.78 0.95 C0.57 13.83, -1.76 64.44, -1.91 77.27 M-0.27 0.4 C-0.03 13.43, 0.43 65.29, 0.42 78.42" stroke="#000000" stroke-width="1" fill="none"/></g></g><mask/><g transform="translate(10 80.4639633033226) rotate(0 18 1.1999969482421875)" stroke="none"><path fill="#000000" d="M 0,-1.87 Q 0,-1.87 1.38,-2.45 2.76,-3.03 4.43,-3.05 6.10,-3.08 7.88,-3.09 9.65,-3.10 10.96,-3.10 12.26,-3.10 13.48,-3.10 14.70,-3.10 16.66,-2.56 18.62,-2.02 20.21,-1.98 21.80,-1.95 22.86,-1.73 23.93,-1.51 25.39,-1.16 26.86,-0.80 28.00,-0.77 29.14,-0.73 30.33,-0.73 31.51,-0.72 33.15,-0.04 34.78,0.63 34.93,0.48 35.08,0.33 35.28,0.24 35.47,0.15 35.68,0.13 35.89,0.10 36.10,0.14 36.30,0.19 36.49,0.29 36.67,0.40 36.81,0.56 36.95,0.72 37.03,0.92 37.11,1.11 37.13,1.32 37.14,1.54 37.09,1.74 37.03,1.95 36.92,2.12 36.80,2.30 36.63,2.43 36.47,2.56 36.26,2.63 36.06,2.70 35.85,2.71 35.64,2.71 35.44,2.65 35.23,2.58 35.06,2.45 34.89,2.33 34.77,2.15 34.65,1.98 34.59,1.77 34.53,1.57 34.54,1.36 34.55,1.15 34.62,0.95 34.70,0.75 34.84,0.59 34.97,0.42 35.15,0.31 35.33,0.20 35.54,0.15 35.75,0.10 35.96,0.12 36.17,0.14 36.36,0.23 36.56,0.32 36.71,0.46 36.87,0.60 36.97,0.79 37.07,0.98 37.11,1.19 37.15,1.39 37.12,1.60 37.08,1.81 36.99,2.00 36.89,2.19 36.89,2.19 36.89,2.19 34.80,3.85 32.70,5.52 31.49,5.51 30.27,5.51 29.00,5.49 27.72,5.47 26.18,5.36 24.63,5.25 23.37,4.57 22.11,3.88 21.05,4.05 19.99,4.21 18.79,4.11 17.58,4.00 16.14,3.55 14.70,3.10 13.48,3.10 12.26,3.10 10.96,3.10 9.65,3.10 7.88,3.09 6.10,3.08 4.43,3.05 2.76,3.03 1.38,2.45 0,1.87 -0.22,1.85 -0.44,1.82 -0.66,1.74 -0.87,1.66 -1.05,1.53 -1.24,1.40 -1.39,1.23 -1.54,1.06 -1.65,0.86 -1.75,0.66 -1.81,0.44 -1.86,0.22 -1.86,-0.00 -1.86,-0.22 -1.81,-0.44 -1.75,-0.66 -1.65,-0.86 -1.54,-1.06 -1.39,-1.23 -1.24,-1.40 -1.05,-1.53 -0.87,-1.66 -0.66,-1.74 -0.44,-1.82 -0.22,-1.85 0.00,-1.87 0.00,-1.87 L 0,-1.87 Z"/></g><g transform="translate(66.4000244140625 79.26395109629135) rotate(0 18.60003662109375 1.800018310546875)" stroke="none"><path fill="#000000" d="M 0.77,-1.54 Q 0.77,-1.54 1.65,-1.61 2.54,-1.68 3.88,-1.66 5.22,-1.64 6.37,-1.65 7.53,-1.66 9.21,-1.69 10.89,-1.71 12.87,-1.19 14.85,-0.68 16.15,-0.07 17.44,0.53 18.82,0.55 20.20,0.56 21.69,1.01 23.19,1.45 25.20,1.61 27.20,1.76 28.30,1.97 29.41,2.18 30.71,0.56 32.01,-1.04 33.02,-1.61 34.02,-2.18 36.53,-2.31 39.04,-2.45 39.26,-2.44 39.47,-2.43 39.67,-2.36 39.87,-2.29 40.03,-2.15 40.20,-2.02 40.31,-1.84 40.43,-1.66 40.48,-1.46 40.53,-1.25 40.51,-1.04 40.49,-0.83 40.41,-0.63 40.33,-0.44 40.18,-0.28 40.04,-0.12 39.86,-0.02 39.67,0.08 39.46,0.12 39.26,0.16 39.05,0.13 38.83,0.10 38.64,0.01 38.45,-0.08 38.30,-0.23 38.15,-0.38 38.06,-0.57 37.96,-0.76 37.94,-0.97 37.91,-1.18 37.95,-1.39 37.99,-1.60 38.09,-1.78 38.20,-1.97 38.36,-2.11 38.51,-2.25 38.71,-2.33 38.90,-2.42 39.12,-2.44 39.33,-2.45 39.53,-2.40 39.74,-2.35 39.92,-2.24 40.10,-2.12 40.23,-1.96 40.36,-1.79 40.44,-1.59 40.51,-1.39 40.52,-1.18 40.52,-0.97 40.46,-0.76 40.40,-0.56 40.27,-0.39 40.15,-0.21 39.98,-0.09 39.80,0.02 39.60,0.09 39.40,0.15 39.40,0.15 39.40,0.15 37.46,1.85 35.53,3.55 34.22,4.81 32.92,6.07 31.90,6.72 30.89,7.37 28.88,7.50 26.87,7.63 25.56,7.55 24.26,7.47 22.01,6.94 19.76,6.41 18.52,6.32 17.27,6.23 15.81,5.84 14.36,5.46 13.20,4.76 12.04,4.07 10.72,4.09 9.39,4.10 7.82,4.06 6.25,4.02 4.93,3.92 3.61,3.83 1.91,3.44 0.21,3.06 -0.27,2.30 -0.77,1.54 -0.94,1.43 -1.12,1.31 -1.26,1.16 -1.40,1.01 -1.50,0.82 -1.60,0.64 -1.65,0.44 -1.71,0.24 -1.71,0.03 -1.72,-0.17 -1.67,-0.37 -1.62,-0.58 -1.53,-0.76 -1.44,-0.95 -1.30,-1.11 -1.17,-1.27 -1.00,-1.39 -0.83,-1.51 -0.64,-1.59 -0.44,-1.67 -0.24,-1.69 -0.03,-1.72 0.17,-1.70 0.38,-1.68 0.57,-1.61 0.77,-1.54 0.77,-1.54 L 0.77,-1.54 Z"/></g><g transform="translate(122.800048828125 79.26395109629135) rotate(0 13.199981689453125 1.1999969482421875)" stroke="none"><path fill="#000000" d="M 0.95,-1.43 Q 0.95,-1.43 2.22,-1.14 3.50,-0.85 5.23,-0.71 6.96,-0.57 8.06,-0.54 9.17,-0.51 10.68,-0.52 12.19,-0.52 13.44,-0.52 14.69,-0.51 16.39,-0.51 18.09,-0.51 19.33,-0.63 20.57,-0.74 23.11,-0.95 25.65,-1.15 25.86,-1.17 26.08,-1.20 26.28,-1.15 26.49,-1.11 26.67,-1.00 26.86,-0.89 26.99,-0.73 27.13,-0.57 27.21,-0.37 27.29,-0.17 27.30,0.03 27.32,0.24 27.26,0.45 27.20,0.65 27.09,0.83 26.97,1.00 26.80,1.13 26.63,1.26 26.43,1.33 26.23,1.40 26.02,1.40 25.80,1.40 25.60,1.33 25.40,1.27 25.23,1.14 25.06,1.01 24.94,0.84 24.82,0.66 24.76,0.46 24.70,0.25 24.72,0.04 24.73,-0.16 24.80,-0.36 24.88,-0.56 25.02,-0.72 25.16,-0.88 25.34,-0.99 25.52,-1.10 25.73,-1.15 25.93,-1.20 26.14,-1.18 26.36,-1.15 26.55,-1.06 26.74,-0.98 26.90,-0.83 27.05,-0.69 27.15,-0.50 27.25,-0.31 27.29,-0.10 27.32,0.10 27.29,0.31 27.26,0.52 27.16,0.71 27.06,0.89 26.90,1.04 26.75,1.19 26.56,1.28 26.37,1.37 26.37,1.37 26.37,1.37 24.55,2.77 22.74,4.16 20.41,4.74 18.08,5.31 16.38,5.31 14.67,5.31 13.39,5.30 12.11,5.29 10.51,5.23 8.91,5.16 7.64,5.08 6.37,5.00 5.00,4.82 3.63,4.64 2.13,4.12 0.63,3.61 -0.15,2.52 -0.95,1.43 -1.11,1.30 -1.27,1.16 -1.39,0.99 -1.51,0.82 -1.59,0.63 -1.67,0.44 -1.70,0.23 -1.72,0.02 -1.70,-0.17 -1.68,-0.38 -1.61,-0.58 -1.54,-0.77 -1.42,-0.95 -1.31,-1.12 -1.15,-1.26 -1.00,-1.40 -0.82,-1.50 -0.63,-1.60 -0.43,-1.66 -0.23,-1.71 -0.02,-1.71 0.18,-1.71 0.38,-1.67 0.58,-1.62 0.77,-1.53 0.95,-1.43 0.95,-1.43 L 0.95,-1.43 Z"/></g><g transform="translate(264.4000244140625 16.863957199806975) rotate(0 1.20001220703125 76.80000305175781)" stroke="none"><path fill="#000000" d="M 1.86,0 Q 1.86,0 2.16,1.35 2.47,2.70 3.13,4.95 3.80,7.19 3.91,9.63 4.02,12.07 4.07,14.46 4.13,16.86 4.16,19.25 4.20,21.65 4.21,24.40 4.23,27.14 4.23,29.68 4.24,32.23 4.57,34.85 4.91,37.47 5.06,40.85 5.22,44.23 5.29,47.73 5.36,51.23 5.38,54.44 5.41,57.65 5.42,61.77 5.43,65.90 5.09,69.86 4.75,73.82 4.61,77.44 4.47,81.06 4.42,85.35 4.36,89.64 4.67,93.76 4.98,97.88 5.12,102.51 5.26,107.15 5.31,112.23 5.36,117.30 5.38,121.52 5.40,125.75 5.41,129.27 5.41,132.79 5.41,136.01 5.41,139.23 5.03,142.17 4.66,145.10 4.46,146.89 4.27,148.67 3.39,150.89 2.52,153.12 2.48,153.33 2.44,153.53 2.34,153.72 2.23,153.90 2.07,154.04 1.91,154.19 1.72,154.27 1.52,154.35 1.31,154.37 1.10,154.38 0.89,154.33 0.69,154.28 0.51,154.16 0.33,154.05 0.20,153.88 0.07,153.72 -0.00,153.52 -0.07,153.32 -0.07,153.10 -0.08,152.89 -0.02,152.69 0.04,152.49 0.16,152.31 0.29,152.14 0.46,152.02 0.63,151.90 0.84,151.83 1.04,151.77 1.25,151.78 1.47,151.79 1.66,151.86 1.86,151.94 2.03,152.07 2.19,152.20 2.31,152.38 2.42,152.56 2.47,152.77 2.52,152.98 2.50,153.19 2.48,153.40 2.40,153.59 2.31,153.79 2.17,153.95 2.03,154.10 1.84,154.21 1.66,154.31 1.45,154.35 1.24,154.39 1.03,154.36 0.82,154.33 0.63,154.23 0.44,154.14 0.29,153.99 0.14,153.84 0.05,153.65 -0.04,153.45 -0.06,153.24 -0.09,153.03 -0.09,153.03 -0.09,153.03 -0.76,150.63 -1.43,148.22 -1.34,146.29 -1.24,144.36 -0.93,141.80 -0.62,139.24 -0.63,136.02 -0.64,132.81 -0.66,129.29 -0.67,125.78 -0.70,121.58 -0.73,117.37 -0.80,112.35 -0.86,107.33 -0.99,102.83 -1.12,98.33 -1.45,93.94 -1.77,89.55 -1.71,85.18 -1.65,80.82 -1.50,77.05 -1.35,73.28 -1.01,69.60 -0.67,65.92 -0.68,61.81 -0.69,57.70 -0.72,54.52 -0.74,51.34 -0.80,47.92 -0.86,44.51 -0.99,41.36 -1.13,38.22 -1.49,35.23 -1.84,32.24 -1.84,29.69 -1.84,27.15 -1.84,24.41 -1.83,21.68 -1.82,19.30 -1.81,16.92 -1.81,14.57 -1.80,12.22 -1.82,10.00 -1.83,7.77 -1.82,6.65 -1.81,5.52 -2.14,4.17 -2.47,2.81 -2.16,1.40 -1.86,0 -1.83,-0.22 -1.80,-0.44 -1.72,-0.65 -1.64,-0.86 -1.52,-1.04 -1.39,-1.23 -1.22,-1.38 -1.05,-1.53 -0.85,-1.63 -0.65,-1.73 -0.44,-1.79 -0.22,-1.84 0.00,-1.84 0.22,-1.84 0.44,-1.79 0.65,-1.73 0.85,-1.63 1.05,-1.53 1.22,-1.38 1.39,-1.23 1.52,-1.04 1.64,-0.86 1.72,-0.65 1.80,-0.44 1.83,-0.22 1.86,0.00 1.86,0.00 L 1.86,0 Z"/></g><g transform="translate(202.00006103515625 72.06396940683823) rotate(0 77.39999389648438 6.5999908447265625)" stroke="none"><path fill="#000000" d="M 0,-2.21 Q 0,-2.21 1.50,-2.78 3.00,-3.36 4.29,-2.83 5.59,-2.30 7.49,-2.33 9.40,-2.36 10.49,-2.36 11.58,-2.36 14.20,-1.97 16.81,-1.58 18.17,-1.48 19.53,-1.38 21.25,-0.91 22.97,-0.44 24.89,0.05 26.81,0.55 28.74,1.13 30.67,1.71 32.93,1.98 35.19,2.24 36.47,2.27 37.74,2.31 39.97,2.67 42.19,3.03 43.87,3.16 45.55,3.28 47.29,3.32 49.03,3.37 51.14,3.39 53.26,3.41 55.88,3.42 58.51,3.43 61.01,3.43 63.50,3.43 66.29,3.43 69.07,3.43 71.00,3.10 72.94,2.77 75.43,2.60 77.92,2.43 80.36,2.36 82.80,2.29 84.86,2.26 86.93,2.23 88.50,2.21 90.07,2.20 91.77,2.19 93.48,2.18 94.89,2.17 96.30,2.16 97.60,2.16 98.90,2.15 101.16,2.51 103.42,2.88 104.78,3.00 106.14,3.13 107.70,3.19 109.26,3.24 111.92,3.63 114.57,4.02 116.50,4.16 118.43,4.30 120.60,4.36 122.77,4.43 125.42,4.45 128.07,4.48 130.92,4.49 133.78,4.51 136.32,4.88 138.86,5.25 141.03,5.38 143.20,5.51 145.20,5.97 147.21,6.43 148.71,6.56 150.20,6.69 152.73,9.28 155.27,11.87 155.40,12.03 155.54,12.20 155.62,12.39 155.70,12.59 155.71,12.80 155.72,13.02 155.66,13.22 155.60,13.42 155.48,13.60 155.36,13.77 155.19,13.90 155.02,14.03 154.82,14.10 154.62,14.16 154.41,14.16 154.19,14.16 153.99,14.09 153.79,14.02 153.62,13.89 153.45,13.76 153.34,13.59 153.22,13.41 153.16,13.21 153.11,13.00 153.12,12.79 153.13,12.58 153.21,12.38 153.29,12.18 153.43,12.02 153.57,11.86 153.75,11.75 153.93,11.64 154.14,11.60 154.35,11.55 154.56,11.58 154.77,11.60 154.96,11.69 155.15,11.78 155.31,11.93 155.46,12.08 155.56,12.27 155.66,12.45 155.69,12.66 155.73,12.87 155.69,13.08 155.65,13.29 155.55,13.48 155.45,13.67 155.30,13.81 155.14,13.96 154.95,14.05 154.76,14.13 154.55,14.16 154.33,14.18 154.13,14.13 153.92,14.08 153.74,13.97 153.56,13.86 153.56,13.86 153.56,13.86 151.49,14.12 149.41,14.39 147.41,14.17 145.40,13.96 144.04,13.60 142.68,13.24 140.18,13.07 137.67,12.90 135.70,12.58 133.73,12.25 130.86,12.24 127.98,12.23 125.26,12.19 122.54,12.16 120.19,12.09 117.84,12.02 115.62,11.85 113.41,11.67 111.19,11.32 108.97,10.97 107.18,10.90 105.39,10.83 103.73,10.66 102.07,10.49 100.47,10.17 98.88,9.85 97.60,9.84 96.31,9.83 94.91,9.83 93.50,9.82 91.81,9.82 90.12,9.82 88.57,9.83 87.03,9.84 85.01,9.86 82.99,9.88 80.70,9.94 78.40,9.99 76.24,10.12 74.09,10.24 71.58,10.60 69.08,10.95 66.28,10.95 63.49,10.94 60.98,10.94 58.47,10.93 55.82,10.91 53.16,10.90 50.96,10.86 48.76,10.83 46.85,10.74 44.94,10.65 42.89,10.47 40.84,10.28 39.17,9.92 37.50,9.56 36.10,9.50 34.71,9.45 32.94,9.31 31.17,9.16 29.88,8.88 28.59,8.60 26.78,8.06 24.97,7.51 22.95,6.97 20.94,6.44 19.90,6.09 18.86,5.74 16.97,5.55 15.09,5.35 13.30,5.04 11.51,4.73 10.36,4.70 9.21,4.68 7.24,4.55 5.27,4.43 3.89,3.90 2.51,3.36 1.25,2.78 0,2.21 -0.26,2.17 -0.52,2.14 -0.77,2.05 -1.02,1.95 -1.24,1.80 -1.46,1.65 -1.64,1.45 -1.81,1.25 -1.94,1.01 -2.06,0.78 -2.13,0.52 -2.19,0.26 -2.19,-0.00 -2.19,-0.26 -2.13,-0.52 -2.06,-0.78 -1.94,-1.01 -1.81,-1.25 -1.64,-1.45 -1.46,-1.65 -1.24,-1.80 -1.02,-1.95 -0.77,-2.05 -0.52,-2.14 -0.26,-2.17 0.00,-2.21 0.00,-2.21 L 0,-2.21 Z"/></g><g transform="translate(89.20001220703125 207.66397551035385) rotate(0 -2.999969482421875 47.40000915527344)" stroke="none"><path fill="#000000" d="M -1.83,0.45 Q -1.83,0.45 -2.52,-0.83 -3.20,-2.13 -3.72,-3.18 -4.23,-4.23 -4.24,-4.61 -4.26,-4.99 -4.18,-5.36 -4.10,-5.74 -3.94,-6.08 -3.77,-6.43 -3.53,-6.72 -3.28,-7.01 -2.98,-7.24 -2.67,-7.47 -2.32,-7.62 -1.97,-7.77 -1.59,-7.82 -1.21,-7.88 -0.83,-7.85 -0.45,-7.82 -0.09,-7.70 0.26,-7.57 0.58,-7.37 0.90,-7.16 1.17,-6.89 1.43,-6.61 1.62,-6.28 1.81,-5.95 1.91,-5.58 2.02,-5.21 2.29,-3.85 2.56,-2.48 3.45,0.79 4.34,4.07 5.08,8.69 5.83,13.30 6.15,18.81 6.47,24.33 5.20,32.47 3.93,40.61 2.35,47.81 0.76,55.01 -0.58,61.46 -1.93,67.91 -3.25,73.77 -4.56,79.62 -5.17,83.69 -5.78,87.75 -6.14,90.49 -6.50,93.23 -6.87,96.24 -7.25,99.25 -7.26,99.46 -7.27,99.67 -7.35,99.87 -7.42,100.07 -7.56,100.23 -7.70,100.39 -7.88,100.50 -8.06,100.61 -8.27,100.66 -8.48,100.70 -8.69,100.68 -8.90,100.66 -9.09,100.57 -9.29,100.48 -9.44,100.33 -9.59,100.19 -9.69,100.00 -9.79,99.81 -9.83,99.60 -9.86,99.39 -9.83,99.18 -9.80,98.97 -9.70,98.79 -9.60,98.60 -9.44,98.45 -9.29,98.30 -9.10,98.22 -8.90,98.13 -8.69,98.10 -8.48,98.08 -8.27,98.12 -8.07,98.17 -7.88,98.28 -7.70,98.39 -7.56,98.55 -7.43,98.71 -7.35,98.91 -7.27,99.11 -7.26,99.32 -7.24,99.53 -7.30,99.73 -7.36,99.94 -7.48,100.12 -7.60,100.29 -7.76,100.42 -7.93,100.55 -8.13,100.62 -8.34,100.69 -8.55,100.69 -8.76,100.69 -8.96,100.62 -9.16,100.55 -9.33,100.42 -9.50,100.30 -9.62,100.12 -9.74,99.94 -9.80,99.74 -9.86,99.53 -9.86,99.53 -9.86,99.53 -10.94,96.17 -12.02,92.80 -11.92,89.89 -11.82,86.98 -11.35,82.62 -10.89,78.26 -9.67,72.40 -8.45,66.55 -7.09,60.06 -5.72,53.57 -4.18,46.56 -2.63,39.55 -1.39,32.11 -0.15,24.66 -0.42,19.49 -0.69,14.32 -1.35,10.03 -2.00,5.73 -2.77,2.67 -3.55,-0.39 -3.89,-2.31 -4.23,-4.23 -4.24,-4.61 -4.26,-4.99 -4.18,-5.36 -4.10,-5.74 -3.94,-6.08 -3.77,-6.43 -3.53,-6.72 -3.29,-7.01 -2.98,-7.24 -2.67,-7.47 -2.32,-7.62 -1.97,-7.77 -1.59,-7.82 -1.21,-7.88 -0.83,-7.85 -0.45,-7.82 -0.09,-7.70 0.26,-7.57 0.58,-7.37 0.90,-7.16 1.16,-6.89 1.43,-6.61 1.62,-6.28 1.81,-5.95 1.91,-5.58 2.02,-5.21 1.92,-4.30 1.82,-3.38 1.83,-1.92 1.83,-0.45 1.86,-0.23 1.89,-0.00 1.86,0.22 1.84,0.44 1.76,0.66 1.68,0.87 1.55,1.06 1.42,1.25 1.25,1.40 1.08,1.55 0.87,1.66 0.67,1.77 0.45,1.82 0.23,1.88 0.00,1.88 -0.22,1.88 -0.44,1.82 -0.66,1.77 -0.86,1.66 -1.07,1.56 -1.24,1.41 -1.41,1.26 -1.54,1.07 -1.67,0.88 -1.75,0.67 -1.83,0.45 -1.83,0.45 L -1.83,0.45 Z"/></g><g transform="translate(172.00006103515625 214.86395719980698) rotate(0 -24 41.40000915527344)" stroke="none"><path fill="#000000" d="M -2.02,0.50 Q -2.02,0.50 -2.65,-0.61 -3.28,-1.72 -5.75,-2.87 -8.21,-4.02 -10.70,-3.94 -13.18,-3.85 -15.93,-2.29 -18.67,-0.72 -22.69,1.97 -26.70,4.67 -30.98,9.08 -35.25,13.50 -38.02,17.64 -40.79,21.77 -41.86,25.05 -42.93,28.33 -41.45,31.50 -39.98,34.67 -37.62,36.91 -35.26,39.14 -31.34,41.47 -27.41,43.79 -23.10,45.48 -18.79,47.17 -14.70,49.01 -10.61,50.84 -7.81,52.96 -5.02,55.08 -3.53,59.05 -2.04,63.02 -2.96,67.23 -3.88,71.43 -6.17,75.37 -8.45,79.31 -12.38,83.22 -16.30,87.12 -20.39,89.26 -24.47,91.41 -29.13,91.58 -33.79,91.76 -37.41,90.17 -41.04,88.58 -43.23,86.58 -45.43,84.57 -46.30,82.31 -47.17,80.05 -47.03,78.17 -46.90,76.29 -46.87,76.08 -46.84,75.87 -46.74,75.68 -46.64,75.49 -46.49,75.34 -46.34,75.19 -46.15,75.10 -45.95,75.01 -45.74,74.98 -45.53,74.96 -45.32,75.00 -45.12,75.04 -44.93,75.15 -44.75,75.26 -44.61,75.42 -44.47,75.58 -44.39,75.77 -44.31,75.97 -44.29,76.18 -44.28,76.39 -44.33,76.60 -44.39,76.81 -44.50,76.98 -44.62,77.16 -44.79,77.29 -44.96,77.42 -45.16,77.49 -45.36,77.56 -45.57,77.57 -45.78,77.57 -45.98,77.50 -46.19,77.44 -46.36,77.31 -46.53,77.19 -46.65,77.01 -46.77,76.84 -46.83,76.63 -46.89,76.43 -46.88,76.22 -46.87,76.00 -46.80,75.81 -46.72,75.61 -46.58,75.44 -46.45,75.28 -46.27,75.17 -46.09,75.06 -45.88,75.01 -45.67,74.96 -45.46,74.98 -45.25,75.00 -45.06,75.09 -44.86,75.17 -44.71,75.32 -44.55,75.46 -44.45,75.65 -44.35,75.83 -44.31,76.04 -44.27,76.25 -44.27,76.25 -44.27,76.25 -44.10,77.43 -43.92,78.61 -43.10,79.79 -42.27,80.96 -40.49,82.16 -38.70,83.36 -36.20,84.45 -33.70,85.54 -30.45,85.51 -27.19,85.48 -24.03,83.90 -20.86,82.32 -17.45,79.09 -14.05,75.86 -12.08,72.75 -10.11,69.64 -9.14,67.01 -8.16,64.38 -8.71,61.99 -9.26,59.60 -11.25,58.13 -13.24,56.66 -17.18,54.91 -21.12,53.16 -25.95,51.30 -30.78,49.43 -35.38,46.64 -39.98,43.85 -43.06,40.54 -46.15,37.24 -47.74,32.23 -49.33,27.23 -47.87,22.64 -46.42,18.06 -43.24,13.42 -40.07,8.79 -35.24,3.95 -30.41,-0.89 -25.98,-3.76 -21.56,-6.63 -17.43,-8.41 -13.31,-10.19 -9.36,-9.88 -5.41,-9.56 -3.29,-8.28 -1.17,-7.01 0.36,-5.40 1.90,-3.79 1.96,-2.14 2.02,-0.50 2.05,-0.25 2.08,-0.00 2.05,0.24 2.02,0.49 1.93,0.72 1.85,0.96 1.70,1.17 1.56,1.37 1.37,1.54 1.19,1.71 0.96,1.83 0.74,1.94 0.50,2.00 0.25,2.06 0.00,2.07 -0.24,2.07 -0.48,2.01 -0.73,1.95 -0.95,1.83 -1.17,1.72 -1.36,1.55 -1.55,1.38 -1.70,1.18 -1.84,0.97 -1.93,0.74 -2.02,0.50 -2.02,0.50 L -2.02,0.50 Z"/></g><g transform="translate(246.4000244140625 224.46399382090073) rotate(0 -10.79998779296875 34.19996643066406)" stroke="none"><path fill="#000000" d="M -0.79,1.99 Q -0.79,1.99 -2.58,1.45 -4.36,0.91 -6.41,0.45 -8.46,-0.01 -10.84,-0.13 -13.22,-0.25 -16.28,-0.27 -19.34,-0.29 -21.88,0.64 -24.43,1.58 -26.69,3.21 -28.94,4.84 -31.74,8.73 -34.53,12.61 -36.73,17.54 -38.92,22.48 -40.90,28.33 -42.89,34.19 -43.68,41.22 -44.47,48.25 -43.83,53.38 -43.18,58.51 -41.50,61.91 -39.83,65.31 -36.25,66.79 -32.67,68.26 -28.09,67.98 -23.51,67.69 -17.81,66.29 -12.11,64.89 -5.70,61.96 0.70,59.03 5.43,56.12 10.16,53.21 13.34,50.10 16.51,46.99 18.71,42.55 20.91,38.10 21.83,33.36 22.74,28.62 22.15,23.48 21.55,18.34 19.04,13.00 16.52,7.67 13.72,4.60 10.91,1.53 7.89,0.76 4.86,-0.01 0.17,1.19 -4.51,2.39 -9.05,4.09 -13.58,5.79 -18.00,7.72 -22.43,9.65 -26.15,11.29 -29.88,12.94 -31.49,13.63 -33.10,14.31 -33.30,14.38 -33.50,14.45 -33.72,14.46 -33.93,14.46 -34.13,14.39 -34.33,14.33 -34.50,14.20 -34.67,14.07 -34.80,13.90 -34.92,13.73 -34.98,13.52 -35.04,13.32 -35.03,13.11 -35.02,12.89 -34.94,12.69 -34.87,12.50 -34.73,12.33 -34.59,12.17 -34.41,12.06 -34.23,11.95 -34.03,11.90 -33.82,11.85 -33.61,11.87 -33.40,11.89 -33.20,11.98 -33.01,12.06 -32.85,12.21 -32.70,12.35 -32.59,12.54 -32.49,12.73 -32.46,12.94 -32.42,13.14 -32.45,13.35 -32.48,13.56 -32.58,13.75 -32.68,13.94 -32.83,14.09 -32.98,14.24 -33.17,14.33 -33.37,14.42 -33.58,14.45 -33.79,14.47 -34.00,14.43 -34.20,14.39 -34.39,14.28 -34.57,14.17 -34.71,14.01 -34.85,13.85 -34.93,13.65 -35.01,13.46 -35.03,13.25 -35.04,13.03 -34.98,12.83 -34.93,12.62 -34.81,12.45 -34.70,12.27 -34.53,12.14 -34.36,12.01 -34.36,12.01 -34.36,12.01 -32.91,11.02 -31.46,10.03 -27.98,7.75 -24.50,5.47 -20.09,3.02 -15.69,0.57 -10.80,-1.53 -5.91,-3.65 0.19,-4.91 6.29,-6.17 10.82,-4.65 15.34,-3.12 18.94,0.85 22.54,4.82 25.35,11.19 28.16,17.55 28.73,23.71 29.29,29.87 28.08,35.48 26.86,41.10 24.04,46.40 21.22,51.70 17.45,55.29 13.68,58.89 8.57,62.00 3.46,65.11 -3.53,68.24 -10.53,71.37 -16.91,72.86 -23.29,74.34 -29.27,74.36 -35.24,74.38 -40.27,71.68 -45.29,68.99 -47.63,64.22 -49.97,59.45 -50.65,53.47 -51.33,47.49 -50.38,39.74 -49.42,31.99 -47.30,25.81 -45.17,19.62 -42.57,14.07 -39.96,8.52 -36.33,3.97 -32.70,-0.56 -29.58,-2.53 -26.46,-4.50 -22.85,-5.53 -19.24,-6.56 -15.93,-6.35 -12.61,-6.14 -9.75,-5.72 -6.88,-5.29 -4.71,-4.48 -2.53,-3.67 -0.86,-2.83 0.79,-1.99 1.02,-1.86 1.25,-1.74 1.44,-1.56 1.63,-1.39 1.77,-1.17 1.91,-0.96 2.00,-0.71 2.09,-0.47 2.11,-0.21 2.14,0.03 2.11,0.29 2.07,0.55 1.97,0.79 1.88,1.03 1.73,1.24 1.58,1.45 1.38,1.62 1.18,1.78 0.95,1.90 0.72,2.02 0.47,2.07 0.22,2.13 -0.03,2.13 -0.29,2.12 -0.54,2.05 -0.79,1.99 -0.79,1.99 L -0.79,1.99 Z"/></g><g stroke-linecap="round" transform="translate(555.8463111124922 84.37589138880662) rotate(180.6051898861293 19.79998779296875 17.400009155273438)"><path d="M20.39 0.46 C24.26 0.14, 29.03 2.11, 32.06 4.37 C35.09 6.64, 37.63 10.53, 38.58 14.06 C39.53 17.58, 39.8 22.11, 37.77 25.51 C35.74 28.91, 30.65 32.92, 26.4 34.45 C22.16 35.99, 16.42 35.99, 12.32 34.72 C8.22 33.45, 3.97 30.31, 1.81 26.81 C-0.35 23.31, -1.51 17.5, -0.67 13.71 C0.18 9.92, 3.21 6.43, 6.87 4.05 C10.54 1.68, 18.62 -0.09, 21.34 -0.54 C24.06 -1, 23.18 0.98, 23.19 1.31 M14.01 -0.84 C17.93 -1.85, 25.79 -1.19, 29.94 0.93 C34.1 3.05, 37.42 8.37, 38.92 11.9 C40.42 15.43, 40.52 18.53, 38.95 22.11 C37.38 25.68, 32.82 31.07, 29.5 33.34 C26.19 35.62, 23.13 36.24, 19.03 35.75 C14.94 35.27, 8.28 33.22, 4.92 30.42 C1.56 27.61, -0.81 22.71, -1.13 18.93 C-1.44 15.14, 0.17 10.76, 3.04 7.72 C5.91 4.68, 14.18 1.78, 16.09 0.66 C17.99 -0.45, 14.54 0.84, 14.47 1.03" stroke="#000000" stroke-width="1" fill="none"/></g><g stroke-linecap="round" transform="translate(537.9032478647325 54.39517422167637) rotate(180.6051898861293 39.5999755859375 42)"><path d="M20.95 3.97 C26.83 0.29, 35.95 -0.08, 43.02 0.64 C50.09 1.36, 57.57 3.69, 63.38 8.3 C69.19 12.9, 75.26 21.1, 77.87 28.26 C80.49 35.42, 81.01 44.1, 79.07 51.26 C77.14 58.42, 71.57 66.02, 66.27 71.21 C60.96 76.4, 53.98 80.7, 47.23 82.42 C40.48 84.14, 32.41 84.02, 25.78 81.52 C19.15 79.03, 11.76 73.53, 7.44 67.45 C3.11 61.36, 0.31 52.87, -0.16 45.02 C-0.62 37.18, 0.44 27.43, 4.65 20.39 C8.85 13.34, 20.94 5.77, 25.09 2.76 C29.25 -0.25, 29.44 1.61, 29.59 2.32 M38.4 -0.31 C45.33 -1.05, 53.91 3.81, 59.93 7.59 C65.94 11.37, 71.09 15.75, 74.48 22.36 C77.87 28.97, 81.15 39.34, 80.26 47.24 C79.38 55.15, 73.81 63.8, 69.17 69.8 C64.54 75.81, 59.06 81.21, 52.46 83.3 C45.87 85.38, 36.39 84.34, 29.6 82.32 C22.81 80.3, 16.46 76.83, 11.7 71.15 C6.93 65.48, 2.57 56.12, 0.99 48.28 C-0.58 40.45, -0.67 31.12, 2.24 24.16 C5.14 17.2, 12.57 10.72, 18.43 6.53 C24.3 2.35, 34.07 0.2, 37.41 -0.95 C40.75 -2.1, 38.04 -1.31, 38.46 -0.36" stroke="#000000" stroke-width="1" fill="none"/></g><g stroke-linecap="round"><g transform="translate(708.2460232203032 96.06904422812937) rotate(360.43024533916855 0 12.599990844726562)"><path d="M-0.41 -0.75 C-0.45 3.49, -0.77 21.09, -0.85 25.23 M1.57 1.48 C1.96 5.94, 1.43 22.89, 1.42 26.79" stroke="#000000" stroke-width="1" fill="none"/></g></g><mask/><g stroke-linecap="round"><g transform="translate(709.2521613966456 126.46732327852985) rotate(360.43024533916855 52.800018310546875 9)"><path d="M-0.95 0.02 C16.52 3.13, 88.05 15.35, 105.69 18.26 M0.75 -1.01 C17.99 1.74, 87.01 13.02, 104.78 16.27" stroke="#000000" stroke-width="1" fill="none"/></g></g><mask/><g stroke-linecap="round"><g transform="translate(712.0603823700849 96.48645877914578) rotate(360.43024533916855 52.800018310546875 -15.599990844726562)"><path d="M-1.13 0.61 C16.66 -4.92, 87.8 -26.87, 105.75 -32.08 M0.48 -0.11 C18.21 -5.01, 87.24 -25.57, 104.89 -31.01" stroke="#000000" stroke-width="1" fill="none"/></g></g><mask/><g stroke-linecap="round"><g transform="translate(817.4700731687326 66.88162307764503) rotate(360.43024533916855 -0.5999755859375 39)"><path d="M0.78 0.95 C0.57 13.83, -1.76 64.44, -1.91 77.27 M-0.27 0.4 C-0.03 13.43, 0.43 65.29, 0.42 78.42" stroke="#000000" stroke-width="1" fill="none"/></g></g><mask/><g transform="translate(693.8445716208867 108.09281805816579) rotate(360.43024533916855 18 1.1999969482421875)" stroke="none"><path fill="#000000" d="M 0,-1.87 Q 0,-1.87 1.38,-2.45 2.76,-3.03 4.43,-3.05 6.10,-3.08 7.88,-3.09 9.65,-3.10 10.96,-3.10 12.26,-3.10 13.48,-3.10 14.70,-3.10 16.66,-2.56 18.62,-2.02 20.21,-1.98 21.80,-1.95 22.86,-1.73 23.93,-1.51 25.39,-1.16 26.86,-0.80 28.00,-0.77 29.14,-0.73 30.33,-0.73 31.51,-0.72 33.15,-0.04 34.78,0.63 34.93,0.48 35.08,0.33 35.28,0.24 35.47,0.15 35.68,0.13 35.89,0.10 36.10,0.14 36.30,0.19 36.49,0.29 36.67,0.40 36.81,0.56 36.95,0.72 37.03,0.92 37.11,1.11 37.13,1.32 37.14,1.54 37.09,1.74 37.03,1.95 36.92,2.12 36.80,2.30 36.63,2.43 36.47,2.56 36.26,2.63 36.06,2.70 35.85,2.71 35.64,2.71 35.44,2.65 35.23,2.58 35.06,2.45 34.89,2.33 34.77,2.15 34.65,1.98 34.59,1.77 34.53,1.57 34.54,1.36 34.55,1.15 34.62,0.95 34.70,0.75 34.84,0.59 34.97,0.42 35.15,0.31 35.33,0.20 35.54,0.15 35.75,0.10 35.96,0.12 36.17,0.14 36.36,0.23 36.56,0.32 36.71,0.46 36.87,0.60 36.97,0.79 37.07,0.98 37.11,1.19 37.15,1.39 37.12,1.60 37.08,1.81 36.99,2.00 36.89,2.19 36.89,2.19 36.89,2.19 34.80,3.85 32.70,5.52 31.49,5.51 30.27,5.51 29.00,5.49 27.72,5.47 26.18,5.36 24.63,5.25 23.37,4.57 22.11,3.88 21.05,4.05 19.99,4.21 18.79,4.11 17.58,4.00 16.14,3.55 14.70,3.10 13.48,3.10 12.26,3.10 10.96,3.10 9.65,3.10 7.88,3.09 6.10,3.08 4.43,3.05 2.76,3.03 1.38,2.45 0,1.87 -0.22,1.85 -0.44,1.82 -0.66,1.74 -0.87,1.66 -1.05,1.53 -1.24,1.40 -1.39,1.23 -1.54,1.06 -1.65,0.86 -1.75,0.66 -1.81,0.44 -1.86,0.22 -1.86,-0.00 -1.86,-0.22 -1.81,-0.44 -1.75,-0.66 -1.65,-0.86 -1.54,-1.06 -1.39,-1.23 -1.24,-1.40 -1.05,-1.53 -0.87,-1.66 -0.66,-1.74 -0.44,-1.82 -0.22,-1.85 0.00,-1.87 0.00,-1.87 L 0,-1.87 Z"/></g><g transform="translate(750.2474943888914 107.3208434752778) rotate(360.43024533916855 18.60003662109375 1.800018310546875)" stroke="none"><path fill="#000000" d="M 0.77,-1.54 Q 0.77,-1.54 1.65,-1.61 2.54,-1.68 3.88,-1.66 5.22,-1.64 6.37,-1.65 7.53,-1.66 9.21,-1.69 10.89,-1.71 12.87,-1.19 14.85,-0.68 16.15,-0.07 17.44,0.53 18.82,0.55 20.20,0.56 21.69,1.01 23.19,1.45 25.20,1.61 27.20,1.76 28.30,1.97 29.41,2.18 30.71,0.56 32.01,-1.04 33.02,-1.61 34.02,-2.18 36.53,-2.31 39.04,-2.45 39.26,-2.44 39.47,-2.43 39.67,-2.36 39.87,-2.29 40.03,-2.15 40.20,-2.02 40.31,-1.84 40.43,-1.66 40.48,-1.46 40.53,-1.25 40.51,-1.04 40.49,-0.83 40.41,-0.63 40.33,-0.44 40.18,-0.28 40.04,-0.12 39.86,-0.02 39.67,0.08 39.46,0.12 39.26,0.16 39.05,0.13 38.83,0.10 38.64,0.01 38.45,-0.08 38.30,-0.23 38.15,-0.38 38.06,-0.57 37.96,-0.76 37.94,-0.97 37.91,-1.18 37.95,-1.39 37.99,-1.60 38.09,-1.78 38.20,-1.97 38.36,-2.11 38.51,-2.25 38.71,-2.33 38.90,-2.42 39.12,-2.44 39.33,-2.45 39.53,-2.40 39.74,-2.35 39.92,-2.24 40.10,-2.12 40.23,-1.96 40.36,-1.79 40.44,-1.59 40.51,-1.39 40.52,-1.18 40.52,-0.97 40.46,-0.76 40.40,-0.56 40.27,-0.39 40.15,-0.21 39.98,-0.09 39.80,0.02 39.60,0.09 39.40,0.15 39.40,0.15 39.40,0.15 37.46,1.85 35.53,3.55 34.22,4.81 32.92,6.07 31.90,6.72 30.89,7.37 28.88,7.50 26.87,7.63 25.56,7.55 24.26,7.47 22.01,6.94 19.76,6.41 18.52,6.32 17.27,6.23 15.81,5.84 14.36,5.46 13.20,4.76 12.04,4.07 10.72,4.09 9.39,4.10 7.82,4.06 6.25,4.02 4.93,3.92 3.61,3.83 1.91,3.44 0.21,3.06 -0.27,2.30 -0.77,1.54 -0.94,1.43 -1.12,1.31 -1.26,1.16 -1.40,1.01 -1.50,0.82 -1.60,0.64 -1.65,0.44 -1.71,0.24 -1.71,0.03 -1.72,-0.17 -1.67,-0.37 -1.62,-0.58 -1.53,-0.76 -1.44,-0.95 -1.30,-1.11 -1.17,-1.27 -1.00,-1.39 -0.83,-1.51 -0.64,-1.59 -0.44,-1.67 -0.24,-1.69 -0.03,-1.72 0.17,-1.70 0.38,-1.68 0.57,-1.61 0.77,-1.54 0.77,-1.54 L 0.77,-1.54 Z"/></g><g transform="translate(806.6505865519962 107.70382564966889) rotate(360.43024533916855 13.199981689453125 1.1999969482421875)" stroke="none"><path fill="#000000" d="M 0.95,-1.43 Q 0.95,-1.43 2.22,-1.14 3.50,-0.85 5.23,-0.71 6.96,-0.57 8.06,-0.54 9.17,-0.51 10.68,-0.52 12.19,-0.52 13.44,-0.52 14.69,-0.51 16.39,-0.51 18.09,-0.51 19.33,-0.63 20.57,-0.74 23.11,-0.95 25.65,-1.15 25.86,-1.17 26.08,-1.20 26.28,-1.15 26.49,-1.11 26.67,-1.00 26.86,-0.89 26.99,-0.73 27.13,-0.57 27.21,-0.37 27.29,-0.17 27.30,0.03 27.32,0.24 27.26,0.45 27.20,0.65 27.09,0.83 26.97,1.00 26.80,1.13 26.63,1.26 26.43,1.33 26.23,1.40 26.02,1.40 25.80,1.40 25.60,1.33 25.40,1.27 25.23,1.14 25.06,1.01 24.94,0.84 24.82,0.66 24.76,0.46 24.70,0.25 24.72,0.04 24.73,-0.16 24.80,-0.36 24.88,-0.56 25.02,-0.72 25.16,-0.88 25.34,-0.99 25.52,-1.10 25.73,-1.15 25.93,-1.20 26.14,-1.18 26.36,-1.15 26.55,-1.06 26.74,-0.98 26.90,-0.83 27.05,-0.69 27.15,-0.50 27.25,-0.31 27.29,-0.10 27.32,0.10 27.29,0.31 27.26,0.52 27.16,0.71 27.06,0.89 26.90,1.04 26.75,1.19 26.56,1.28 26.37,1.37 26.37,1.37 26.37,1.37 24.55,2.77 22.74,4.16 20.41,4.74 18.08,5.31 16.38,5.31 14.67,5.31 13.39,5.30 12.11,5.29 10.51,5.23 8.91,5.16 7.64,5.08 6.37,5.00 5.00,4.82 3.63,4.64 2.13,4.12 0.63,3.61 -0.15,2.52 -0.95,1.43 -1.11,1.30 -1.27,1.16 -1.39,0.99 -1.51,0.82 -1.59,0.63 -1.67,0.44 -1.70,0.23 -1.72,0.02 -1.70,-0.17 -1.68,-0.38 -1.61,-0.58 -1.54,-0.77 -1.42,-0.95 -1.31,-1.12 -1.15,-1.26 -1.00,-1.40 -0.82,-1.50 -0.63,-1.60 -0.43,-1.66 -0.23,-1.71 -0.02,-1.71 0.18,-1.71 0.38,-1.67 0.58,-1.62 0.77,-1.53 0.95,-1.43 0.95,-1.43 L 0.95,-1.43 Z"/></g><g transform="translate(576.4046098001279 9.995715844142296) rotate(180.6051898861293 1.20001220703125 76.80000305175781)" stroke="none"><path fill="#000000" d="M 1.86,0 Q 1.86,0 2.16,1.35 2.47,2.70 3.13,4.95 3.80,7.19 3.91,9.63 4.02,12.07 4.07,14.46 4.13,16.86 4.16,19.25 4.20,21.65 4.21,24.40 4.23,27.14 4.23,29.68 4.24,32.23 4.57,34.85 4.91,37.47 5.06,40.85 5.22,44.23 5.29,47.73 5.36,51.23 5.38,54.44 5.41,57.65 5.42,61.77 5.43,65.90 5.09,69.86 4.75,73.82 4.61,77.44 4.47,81.06 4.42,85.35 4.36,89.64 4.67,93.76 4.98,97.88 5.12,102.51 5.26,107.15 5.31,112.23 5.36,117.30 5.38,121.52 5.40,125.75 5.41,129.27 5.41,132.79 5.41,136.01 5.41,139.23 5.03,142.17 4.66,145.10 4.46,146.89 4.27,148.67 3.39,150.89 2.52,153.12 2.48,153.33 2.44,153.53 2.34,153.72 2.23,153.90 2.07,154.04 1.91,154.19 1.72,154.27 1.52,154.35 1.31,154.37 1.10,154.38 0.89,154.33 0.69,154.28 0.51,154.16 0.33,154.05 0.20,153.88 0.07,153.72 -0.00,153.52 -0.07,153.32 -0.07,153.10 -0.08,152.89 -0.02,152.69 0.04,152.49 0.16,152.31 0.29,152.14 0.46,152.02 0.63,151.90 0.84,151.83 1.04,151.77 1.25,151.78 1.47,151.79 1.66,151.86 1.86,151.94 2.03,152.07 2.19,152.20 2.31,152.38 2.42,152.56 2.47,152.77 2.52,152.98 2.50,153.19 2.48,153.40 2.40,153.59 2.31,153.79 2.17,153.95 2.03,154.10 1.84,154.21 1.66,154.31 1.45,154.35 1.24,154.39 1.03,154.36 0.82,154.33 0.63,154.23 0.44,154.14 0.29,153.99 0.14,153.84 0.05,153.65 -0.04,153.45 -0.06,153.24 -0.09,153.03 -0.09,153.03 -0.09,153.03 -0.76,150.63 -1.43,148.22 -1.34,146.29 -1.24,144.36 -0.93,141.80 -0.62,139.24 -0.63,136.02 -0.64,132.81 -0.66,129.29 -0.67,125.78 -0.70,121.58 -0.73,117.37 -0.80,112.35 -0.86,107.33 -0.99,102.83 -1.12,98.33 -1.45,93.94 -1.77,89.55 -1.71,85.18 -1.65,80.82 -1.50,77.05 -1.35,73.28 -1.01,69.60 -0.67,65.92 -0.68,61.81 -0.69,57.70 -0.72,54.52 -0.74,51.34 -0.80,47.92 -0.86,44.51 -0.99,41.36 -1.13,38.22 -1.49,35.23 -1.84,32.24 -1.84,29.69 -1.84,27.15 -1.84,24.41 -1.83,21.68 -1.82,19.30 -1.81,16.92 -1.81,14.57 -1.80,12.22 -1.82,10.00 -1.83,7.77 -1.82,6.65 -1.81,5.52 -2.14,4.17 -2.47,2.81 -2.16,1.40 -1.86,0 -1.83,-0.22 -1.80,-0.44 -1.72,-0.65 -1.64,-0.86 -1.52,-1.04 -1.39,-1.23 -1.22,-1.38 -1.05,-1.53 -0.85,-1.63 -0.65,-1.73 -0.44,-1.79 -0.22,-1.84 0.00,-1.84 0.22,-1.84 0.44,-1.79 0.65,-1.73 0.85,-1.63 1.05,-1.53 1.22,-1.38 1.39,-1.23 1.52,-1.04 1.64,-0.86 1.72,-0.65 1.80,-0.44 1.83,-0.22 1.86,0.00 1.86,0.00 L 1.86,0 Z"/></g><g transform="translate(486.2469442147646 95.04913054465254) rotate(180.6051898861293 77.39999389648438 6.5999908447265625)" stroke="none"><path fill="#000000" d="M 0,-2.21 Q 0,-2.21 1.50,-2.78 3.00,-3.36 4.29,-2.83 5.59,-2.30 7.49,-2.33 9.40,-2.36 10.49,-2.36 11.58,-2.36 14.20,-1.97 16.81,-1.58 18.17,-1.48 19.53,-1.38 21.25,-0.91 22.97,-0.44 24.89,0.05 26.81,0.55 28.74,1.13 30.67,1.71 32.93,1.98 35.19,2.24 36.47,2.27 37.74,2.31 39.97,2.67 42.19,3.03 43.87,3.16 45.55,3.28 47.29,3.32 49.03,3.37 51.14,3.39 53.26,3.41 55.88,3.42 58.51,3.43 61.01,3.43 63.50,3.43 66.29,3.43 69.07,3.43 71.00,3.10 72.94,2.77 75.43,2.60 77.92,2.43 80.36,2.36 82.80,2.29 84.86,2.26 86.93,2.23 88.50,2.21 90.07,2.20 91.77,2.19 93.48,2.18 94.89,2.17 96.30,2.16 97.60,2.16 98.90,2.15 101.16,2.51 103.42,2.88 104.78,3.00 106.14,3.13 107.70,3.19 109.26,3.24 111.92,3.63 114.57,4.02 116.50,4.16 118.43,4.30 120.60,4.36 122.77,4.43 125.42,4.45 128.07,4.48 130.92,4.49 133.78,4.51 136.32,4.88 138.86,5.25 141.03,5.38 143.20,5.51 145.20,5.97 147.21,6.43 148.71,6.56 150.20,6.69 152.73,9.28 155.27,11.87 155.40,12.03 155.54,12.20 155.62,12.39 155.70,12.59 155.71,12.80 155.72,13.02 155.66,13.22 155.60,13.42 155.48,13.60 155.36,13.77 155.19,13.90 155.02,14.03 154.82,14.10 154.62,14.16 154.41,14.16 154.19,14.16 153.99,14.09 153.79,14.02 153.62,13.89 153.45,13.76 153.34,13.59 153.22,13.41 153.16,13.21 153.11,13.00 153.12,12.79 153.13,12.58 153.21,12.38 153.29,12.18 153.43,12.02 153.57,11.86 153.75,11.75 153.93,11.64 154.14,11.60 154.35,11.55 154.56,11.58 154.77,11.60 154.96,11.69 155.15,11.78 155.31,11.93 155.46,12.08 155.56,12.27 155.66,12.45 155.69,12.66 155.73,12.87 155.69,13.08 155.65,13.29 155.55,13.48 155.45,13.67 155.30,13.81 155.14,13.96 154.95,14.05 154.76,14.13 154.55,14.16 154.33,14.18 154.13,14.13 153.92,14.08 153.74,13.97 153.56,13.86 153.56,13.86 153.56,13.86 151.49,14.12 149.41,14.39 147.41,14.17 145.40,13.96 144.04,13.60 142.68,13.24 140.18,13.07 137.67,12.90 135.70,12.58 133.73,12.25 130.86,12.24 127.98,12.23 125.26,12.19 122.54,12.16 120.19,12.09 117.84,12.02 115.62,11.85 113.41,11.67 111.19,11.32 108.97,10.97 107.18,10.90 105.39,10.83 103.73,10.66 102.07,10.49 100.47,10.17 98.88,9.85 97.60,9.84 96.31,9.83 94.91,9.83 93.50,9.82 91.81,9.82 90.12,9.82 88.57,9.83 87.03,9.84 85.01,9.86 82.99,9.88 80.70,9.94 78.40,9.99 76.24,10.12 74.09,10.24 71.58,10.60 69.08,10.95 66.28,10.95 63.49,10.94 60.98,10.94 58.47,10.93 55.82,10.91 53.16,10.90 50.96,10.86 48.76,10.83 46.85,10.74 44.94,10.65 42.89,10.47 40.84,10.28 39.17,9.92 37.50,9.56 36.10,9.50 34.71,9.45 32.94,9.31 31.17,9.16 29.88,8.88 28.59,8.60 26.78,8.06 24.97,7.51 22.95,6.97 20.94,6.44 19.90,6.09 18.86,5.74 16.97,5.55 15.09,5.35 13.30,5.04 11.51,4.73 10.36,4.70 9.21,4.68 7.24,4.55 5.27,4.43 3.89,3.90 2.51,3.36 1.25,2.78 0,2.21 -0.26,2.17 -0.52,2.14 -0.77,2.05 -1.02,1.95 -1.24,1.80 -1.46,1.65 -1.64,1.45 -1.81,1.25 -1.94,1.01 -2.06,0.78 -2.13,0.52 -2.19,0.26 -2.19,-0.00 -2.19,-0.26 -2.13,-0.52 -2.06,-0.78 -1.94,-1.01 -1.81,-1.25 -1.64,-1.45 -1.46,-1.65 -1.24,-1.80 -1.02,-1.95 -0.77,-2.05 -0.52,-2.14 -0.26,-2.17 0.00,-2.21 0.00,-2.21 L 0,-2.21 Z"/></g><g transform="translate(503.2000732421875 190.86395719980698) rotate(0 33.5999755859375 55.20001220703125)" stroke="none"><path fill="#000000" d="M 1.71,0 Q 1.71,0 2.14,2.07 2.57,4.14 1.94,8.04 1.32,11.93 0.74,16.52 0.15,21.10 -0.42,26.84 -0.99,32.57 -1.95,39.89 -2.90,47.21 -3.29,53.65 -3.69,60.10 -3.51,66.54 -3.34,72.98 -1.59,79.58 0.14,86.19 2.83,90.84 5.51,95.50 8.82,98.30 12.12,101.09 16.69,102.88 21.26,104.68 25.67,104.75 30.07,104.82 34.91,103.89 39.76,102.96 44.98,99.94 50.20,96.92 54.10,93.67 58.01,90.42 60.52,86.53 63.04,82.64 64.76,77.70 66.48,72.76 67.94,67.85 69.40,62.94 69.99,58.64 70.58,54.34 69.82,50.07 69.06,45.80 68.08,42.22 67.11,38.65 66.09,35.80 65.06,32.95 64.02,30.76 62.98,28.57 62.51,26.65 62.03,24.74 61.65,21.82 61.27,18.91 61.25,18.69 61.23,18.48 61.28,18.28 61.34,18.07 61.45,17.89 61.56,17.71 61.73,17.58 61.89,17.44 62.09,17.37 62.29,17.30 62.50,17.29 62.72,17.28 62.92,17.34 63.12,17.41 63.30,17.53 63.47,17.65 63.59,17.83 63.72,18.00 63.78,18.20 63.84,18.40 63.84,18.62 63.83,18.83 63.76,19.03 63.69,19.23 63.56,19.39 63.42,19.56 63.24,19.68 63.07,19.79 62.86,19.84 62.65,19.89 62.44,19.88 62.23,19.86 62.03,19.78 61.84,19.69 61.68,19.55 61.52,19.41 61.42,19.23 61.31,19.04 61.27,18.83 61.23,18.62 61.26,18.41 61.29,18.20 61.38,18.01 61.47,17.82 61.62,17.67 61.77,17.52 61.96,17.43 62.15,17.33 62.37,17.30 62.58,17.27 62.78,17.31 62.99,17.35 63.18,17.46 63.36,17.56 63.51,17.72 63.65,17.87 63.73,18.07 63.82,18.26 63.82,18.26 63.82,18.26 65.22,20.82 66.63,23.37 67.14,24.79 67.66,26.20 68.95,28.59 70.24,30.99 71.46,34.06 72.68,37.13 73.74,40.99 74.80,44.85 75.57,49.96 76.35,55.06 75.67,59.83 74.99,64.59 73.48,69.66 71.97,74.72 69.94,80.27 67.90,85.81 64.84,90.34 61.78,94.87 57.43,98.45 53.08,102.03 47.00,105.35 40.92,108.67 35.41,109.66 29.89,110.65 24.54,110.37 19.18,110.09 13.78,107.81 8.37,105.53 4.43,101.99 0.50,98.46 -2.48,93.08 -5.46,87.70 -7.31,80.43 -9.17,73.17 -9.33,66.45 -9.50,59.74 -9.09,53.10 -8.68,46.45 -7.73,39.20 -6.77,31.95 -6.12,26.14 -5.47,20.33 -4.77,15.62 -4.08,10.90 -3.32,7.51 -2.57,4.13 -2.14,2.06 -1.71,0 -1.68,-0.20 -1.66,-0.40 -1.58,-0.60 -1.51,-0.79 -1.39,-0.96 -1.28,-1.13 -1.12,-1.27 -0.97,-1.40 -0.78,-1.50 -0.60,-1.60 -0.40,-1.64 -0.20,-1.69 0.00,-1.69 0.20,-1.69 0.40,-1.64 0.60,-1.60 0.78,-1.50 0.97,-1.40 1.12,-1.27 1.28,-1.13 1.39,-0.96 1.51,-0.79 1.58,-0.60 1.66,-0.40 1.68,-0.20 1.71,0.00 1.71,0.00 L 1.71,0 Z"/></g><g transform="translate(654.4000244140625 205.26395109629135) rotate(0 -19.199951171875 48)" stroke="none"><path fill="#000000" d="M -0.48,1.95 Q -0.48,1.95 -3.29,1.44 -6.09,0.94 -8.83,0.77 -11.56,0.60 -14.27,0.88 -16.98,1.15 -19.18,2.20 -21.38,3.25 -23.15,4.91 -24.93,6.57 -27.28,10.51 -29.62,14.46 -32.11,18.65 -34.59,22.84 -36.25,26.85 -37.91,30.86 -38.24,34.16 -38.57,37.45 -37.21,39.36 -35.85,41.27 -33.54,42.65 -31.23,44.03 -26.66,45.32 -22.08,46.60 -16.93,47.89 -11.77,49.19 -7.21,51.21 -2.66,53.23 0.94,56.40 4.54,59.56 6.27,63.03 8.00,66.49 8.03,70.17 8.06,73.84 6.15,77.81 4.24,81.79 1.20,85.25 -1.83,88.72 -5.35,91.31 -8.88,93.91 -13.67,96.08 -18.47,98.25 -23.16,99.15 -27.85,100.05 -31.84,99.62 -35.82,99.18 -38.67,97.62 -41.52,96.06 -43.44,94.46 -45.36,92.86 -45.53,92.72 -45.69,92.58 -45.80,92.40 -45.91,92.22 -45.96,92.01 -46.01,91.81 -45.99,91.60 -45.97,91.38 -45.88,91.19 -45.79,91.00 -45.65,90.84 -45.50,90.69 -45.31,90.58 -45.13,90.48 -44.92,90.45 -44.71,90.41 -44.50,90.44 -44.29,90.48 -44.10,90.57 -43.91,90.67 -43.76,90.83 -43.62,90.98 -43.53,91.17 -43.44,91.36 -43.41,91.57 -43.39,91.78 -43.43,91.99 -43.47,92.20 -43.58,92.38 -43.69,92.57 -43.85,92.71 -44.01,92.84 -44.21,92.92 -44.40,93.00 -44.62,93.02 -44.83,93.03 -45.03,92.98 -45.24,92.92 -45.42,92.80 -45.59,92.69 -45.72,92.52 -45.85,92.35 -45.92,92.15 -45.99,91.95 -45.99,91.74 -46.00,91.52 -45.93,91.32 -45.86,91.12 -45.74,90.95 -45.61,90.78 -45.43,90.66 -45.26,90.54 -45.05,90.48 -44.85,90.42 -44.64,90.43 -44.43,90.44 -44.23,90.52 -44.03,90.59 -44.03,90.59 -44.03,90.59 -41.88,91.39 -39.74,92.19 -37.48,92.97 -35.23,93.76 -32.09,93.96 -28.96,94.17 -25.00,93.34 -21.04,92.50 -16.84,90.59 -12.65,88.67 -9.63,86.52 -6.61,84.38 -4.00,81.56 -1.39,78.74 0.23,76.04 1.86,73.34 2.11,71.05 2.36,68.76 1.37,66.32 0.38,63.88 -2.40,61.25 -5.20,58.63 -9.21,56.77 -13.23,54.92 -18.49,53.59 -23.76,52.26 -29.09,50.61 -34.43,48.96 -37.58,46.68 -40.73,44.41 -42.49,40.97 -44.24,37.53 -43.77,33.11 -43.30,28.69 -41.45,24.28 -39.60,19.88 -37.08,15.63 -34.56,11.39 -31.62,6.86 -28.69,2.33 -26.15,0.27 -23.62,-1.78 -20.55,-2.99 -17.47,-4.20 -14.26,-4.37 -11.06,-4.54 -8.00,-4.12 -4.94,-3.70 -2.22,-2.82 0.48,-1.95 0.71,-1.86 0.94,-1.77 1.13,-1.63 1.33,-1.50 1.49,-1.31 1.65,-1.13 1.77,-0.92 1.88,-0.70 1.93,-0.47 1.99,-0.23 1.99,0.00 1.99,0.24 1.93,0.48 1.87,0.71 1.76,0.93 1.65,1.14 1.48,1.32 1.32,1.50 1.12,1.64 0.92,1.78 0.70,1.86 0.47,1.95 0.23,1.98 -0.00,2.01 -0.24,1.98 -0.48,1.95 -0.48,1.95 L -0.48,1.95 Z"/></g><g transform="translate(680.800048828125 320.4639938209007) rotate(0 40.79998779296875 -38.4000244140625)" stroke="none"><path fill="#000000" d="M 1.88,1.25 Q 1.88,1.25 1.43,2.45 0.99,3.65 0.76,3.91 0.54,4.17 0.26,4.37 -0.01,4.57 -0.33,4.70 -0.65,4.82 -0.99,4.87 -1.33,4.92 -1.67,4.88 -2.01,4.84 -2.34,4.73 -2.66,4.61 -2.95,4.42 -3.23,4.23 -3.46,3.98 -3.70,3.72 -3.86,3.42 -4.03,3.12 -4.11,2.79 -4.20,2.45 -4.21,2.11 -4.21,1.77 -4.13,1.43 -4.06,1.10 -3.90,0.79 -3.75,0.48 -3.21,-1.11 -2.66,-2.72 -1.53,-4.00 -0.41,-5.27 0.62,-6.69 1.66,-8.10 3.55,-10.51 5.44,-12.92 7.19,-15.55 8.95,-18.19 11.06,-21.70 13.18,-25.21 15.37,-30.33 17.57,-35.45 20.29,-41.21 23.02,-46.97 25.92,-52.55 28.82,-58.14 32.14,-63.99 35.46,-69.85 38.26,-74.43 41.07,-79.02 43.72,-82.48 46.37,-85.94 47.67,-88.21 48.97,-90.48 49.43,-91.85 49.88,-93.21 51.27,-92.76 52.66,-92.30 52.40,-89.63 52.15,-86.97 51.93,-84.07 51.72,-81.17 51.62,-77.86 51.53,-74.55 52.49,-70.40 53.44,-66.25 54.54,-62.34 55.64,-58.43 56.81,-54.32 57.98,-50.21 59.54,-43.93 61.10,-37.64 62.46,-31.87 63.82,-26.09 65.40,-20.63 66.98,-15.17 69.01,-9.46 71.04,-3.75 72.89,0.29 74.74,4.34 76.46,6.93 78.17,9.51 79.79,11.15 81.41,12.78 82.69,13.77 83.97,14.75 84.10,15.09 84.23,15.43 84.48,15.69 84.74,15.94 84.92,16.25 85.11,16.56 85.22,16.90 85.33,17.25 85.35,17.61 85.37,17.97 85.30,18.32 85.24,18.67 85.09,19.00 84.94,19.33 84.72,19.61 84.50,19.90 84.21,20.12 83.93,20.34 83.60,20.49 83.27,20.64 82.92,20.70 82.57,20.77 82.21,20.75 81.85,20.72 81.50,20.62 81.16,20.51 80.85,20.32 80.54,20.14 79.64,17.98 78.75,15.82 78.63,15.64 78.50,15.47 78.44,15.27 78.39,15.06 78.39,14.85 78.40,14.64 78.48,14.44 78.56,14.24 78.69,14.08 78.83,13.91 79.01,13.80 79.19,13.69 79.40,13.64 79.60,13.59 79.81,13.61 80.03,13.63 80.22,13.72 80.41,13.81 80.57,13.95 80.73,14.10 80.83,14.28 80.93,14.47 80.97,14.68 81.00,14.89 80.97,15.10 80.94,15.31 80.84,15.50 80.74,15.69 80.59,15.83 80.44,15.98 80.25,16.07 80.06,16.17 79.84,16.19 79.63,16.22 79.43,16.17 79.22,16.13 79.03,16.02 78.85,15.92 78.71,15.75 78.57,15.59 78.49,15.40 78.41,15.20 78.40,14.99 78.38,14.78 78.44,14.57 78.49,14.37 78.61,14.19 78.73,14.01 78.89,13.88 79.06,13.75 79.26,13.68 79.46,13.61 79.67,13.61 79.89,13.61 80.09,13.67 80.29,13.74 80.46,13.86 80.63,13.99 80.63,13.99 80.63,13.99 82.43,14.71 84.23,15.43 84.48,15.69 84.74,15.94 84.92,16.25 85.11,16.56 85.22,16.90 85.33,17.25 85.35,17.61 85.37,17.97 85.30,18.32 85.24,18.67 85.09,19.00 84.94,19.33 84.72,19.61 84.50,19.90 84.21,20.12 83.93,20.34 83.60,20.49 83.27,20.64 82.92,20.70 82.57,20.77 82.21,20.75 81.85,20.72 81.50,20.62 81.16,20.51 80.85,20.32 80.54,20.14 80.12,20.19 79.69,20.25 78.05,18.94 76.40,17.63 74.38,15.49 72.35,13.35 70.38,10.30 68.40,7.25 66.43,2.91 64.45,-1.41 62.36,-7.32 60.27,-13.23 58.64,-18.87 57.01,-24.51 55.69,-30.25 54.37,-35.99 52.87,-42.17 51.38,-48.35 50.22,-52.48 49.07,-56.60 47.94,-60.70 46.82,-64.80 45.80,-69.76 44.77,-74.71 44.89,-78.21 45.00,-81.70 45.28,-85.09 45.57,-88.48 46.30,-91.40 47.03,-94.31 48.33,-95.90 49.63,-97.49 51.33,-97.62 53.03,-97.74 54.64,-95.98 56.25,-94.21 56.28,-92.74 56.31,-91.27 55.55,-89.18 54.78,-87.10 53.21,-84.48 51.65,-81.87 49.18,-78.71 46.71,-75.56 43.95,-71.08 41.20,-66.59 37.94,-60.85 34.68,-55.10 31.83,-49.62 28.99,-44.14 26.31,-38.48 23.63,-32.83 21.24,-27.32 18.84,-21.80 16.64,-18.16 14.44,-14.52 12.53,-11.68 10.63,-8.84 8.78,-6.50 6.94,-4.15 5.68,-2.50 4.42,-0.84 3.40,0.22 2.37,1.30 1.68,2.47 0.99,3.65 0.76,3.91 0.54,4.17 0.26,4.37 -0.01,4.57 -0.33,4.70 -0.65,4.82 -0.99,4.87 -1.33,4.92 -1.67,4.88 -2.01,4.84 -2.34,4.73 -2.66,4.61 -2.95,4.42 -3.23,4.23 -3.46,3.98 -3.70,3.72 -3.86,3.42 -4.03,3.12 -4.11,2.79 -4.20,2.45 -4.21,2.11 -4.21,1.77 -4.13,1.43 -4.06,1.10 -3.90,0.79 -3.75,0.48 -2.81,-0.38 -1.88,-1.25 -1.70,-1.46 -1.52,-1.67 -1.30,-1.82 -1.08,-1.98 -0.83,-2.08 -0.57,-2.18 -0.30,-2.22 -0.03,-2.26 0.23,-2.23 0.50,-2.20 0.76,-2.11 1.01,-2.02 1.24,-1.86 1.47,-1.71 1.65,-1.51 1.84,-1.31 1.97,-1.07 2.10,-0.83 2.17,-0.57 2.24,-0.30 2.24,-0.03 2.25,0.23 2.19,0.50 2.12,0.76 2.00,1.01 1.88,1.25 1.88,1.25 L 1.88,1.25 Z"/></g><g transform="translate(698.800048828125 288.0639694068382) rotate(0 21.5999755859375 -0.600006103515625)" stroke="none"><path fill="#000000" d="M 0,-2.13 Q 0,-2.13 2.06,-2.55 4.13,-2.98 6.39,-3.01 8.65,-3.04 11.68,-3.05 14.72,-3.05 17.73,-3.06 20.74,-3.06 23.40,-3.03 26.06,-3.00 28.92,-2.89 31.77,-2.77 34.22,-2.84 36.67,-2.91 39.31,-2.66 41.96,-2.41 42.17,-2.39 42.39,-2.38 42.58,-2.29 42.78,-2.21 42.93,-2.07 43.09,-1.93 43.20,-1.74 43.30,-1.56 43.34,-1.35 43.38,-1.14 43.35,-0.93 43.32,-0.72 43.23,-0.53 43.14,-0.34 42.99,-0.19 42.84,-0.04 42.65,0.05 42.45,0.14 42.24,0.17 42.03,0.20 41.83,0.16 41.62,0.12 41.43,0.02 41.25,-0.08 41.10,-0.24 40.96,-0.40 40.88,-0.59 40.79,-0.79 40.78,-1.00 40.76,-1.21 40.81,-1.42 40.86,-1.62 40.98,-1.80 41.09,-1.98 41.26,-2.11 41.42,-2.25 41.62,-2.32 41.82,-2.39 42.03,-2.40 42.25,-2.40 42.45,-2.34 42.65,-2.28 42.82,-2.16 43.00,-2.03 43.12,-1.86 43.25,-1.69 43.31,-1.48 43.37,-1.28 43.36,-1.07 43.36,-0.86 43.29,-0.66 43.21,-0.46 43.08,-0.29 42.95,-0.13 42.77,-0.01 42.59,0.09 42.38,0.14 42.18,0.20 42.18,0.20 42.18,0.20 39.72,0.86 37.26,1.53 34.52,2.15 31.78,2.77 28.92,2.89 26.06,3.00 23.40,3.03 20.74,3.06 17.73,3.06 14.72,3.05 11.68,3.05 8.65,3.04 6.39,3.01 4.13,2.98 2.06,2.55 0,2.13 -0.25,2.10 -0.51,2.07 -0.75,1.98 -0.99,1.88 -1.20,1.74 -1.41,1.59 -1.58,1.40 -1.75,1.21 -1.87,0.98 -1.99,0.75 -2.05,0.50 -2.11,0.25 -2.11,-0.00 -2.11,-0.25 -2.05,-0.50 -1.99,-0.75 -1.87,-0.98 -1.75,-1.21 -1.58,-1.40 -1.41,-1.59 -1.20,-1.74 -0.99,-1.88 -0.75,-1.98 -0.51,-2.07 -0.25,-2.10 0.00,-2.13 0.00,-2.13 L 0,-2.13 Z"/></g></svg>